G04*
G04 #@! TF.GenerationSoftware,Altium Limited,Altium Designer,25.8.1 (18)*
G04*
G04 Layer_Physical_Order=1*
G04 Layer_Color=255*
%FSLAX44Y44*%
%MOMM*%
G71*
G04*
G04 #@! TF.SameCoordinates,7E297B50-0598-46DA-9FDC-CB526C42688E*
G04*
G04*
G04 #@! TF.FilePolarity,Positive*
G04*
G01*
G75*
%ADD12C,0.2500*%
%ADD13C,0.2000*%
%ADD19R,2.0000X1.5000*%
%ADD20R,0.3556X0.5080*%
%ADD21R,0.7000X1.8000*%
%ADD22R,1.8000X1.2000*%
%ADD23R,1.5500X0.6000*%
%ADD24R,0.6000X0.6400*%
%ADD25R,0.6400X0.6000*%
%ADD26R,0.6500X0.6500*%
%ADD27R,0.2500X0.3500*%
%ADD28R,0.6500X0.6500*%
%ADD29R,0.7000X1.6000*%
G04:AMPARAMS|DCode=30|XSize=0.75mm|YSize=0.35mm|CornerRadius=0.0438mm|HoleSize=0mm|Usage=FLASHONLY|Rotation=180.000|XOffset=0mm|YOffset=0mm|HoleType=Round|Shape=RoundedRectangle|*
%AMROUNDEDRECTD30*
21,1,0.7500,0.2625,0,0,180.0*
21,1,0.6625,0.3500,0,0,180.0*
1,1,0.0875,-0.3313,0.1313*
1,1,0.0875,0.3313,0.1313*
1,1,0.0875,0.3313,-0.1313*
1,1,0.0875,-0.3313,-0.1313*
%
%ADD30ROUNDEDRECTD30*%
%ADD31R,1.8000X0.7000*%
%ADD32R,1.1051X1.0062*%
%ADD33R,0.7600X0.7200*%
%ADD34R,0.5000X0.4500*%
%ADD35R,0.8500X0.2000*%
%ADD36R,0.2000X0.8500*%
%ADD37R,2.7000X2.7000*%
%ADD38R,0.7200X0.7600*%
%ADD39R,1.0062X1.1051*%
%ADD40R,0.5725X0.6146*%
%ADD41R,0.4000X0.5000*%
%ADD42R,0.3500X0.2500*%
%ADD62C,1.5700*%
%ADD63R,1.5700X1.5700*%
%ADD64C,0.6500*%
%ADD65C,0.4000*%
%ADD66C,0.5000*%
%ADD67C,0.3000*%
%ADD68C,0.6000*%
%ADD69C,0.4500*%
%ADD70C,0.6000*%
G36*
X57830Y537961D02*
X252961D01*
Y40000D01*
X237039D01*
X236884Y40780D01*
X236442Y41442D01*
X235780Y41884D01*
X235000Y42039D01*
X55000D01*
Y72961D01*
X55780Y73116D01*
X56442Y73558D01*
X56884Y74220D01*
X57039Y75000D01*
Y512076D01*
X62330D01*
Y516742D01*
X74017D01*
X74462Y516830D01*
X78227D01*
X78537Y516830D01*
X79497D01*
X79807Y516830D01*
X83572D01*
X84017Y516742D01*
X104946D01*
X104946Y516742D01*
Y516735D01*
X105573Y516610D01*
X106105Y516255D01*
X106115Y516240D01*
X106430Y515100D01*
X106430Y515100D01*
Y494560D01*
X115970D01*
Y515100D01*
X115813D01*
X115443Y517909D01*
X114357Y520530D01*
X112630Y522780D01*
X110380Y524507D01*
X107759Y525593D01*
X104946Y525963D01*
Y525959D01*
X84017D01*
X83572Y525870D01*
X79807D01*
X79497Y525870D01*
X78537D01*
X78227Y525870D01*
X74462D01*
X74017Y525959D01*
X62330D01*
Y526350D01*
X55000D01*
Y530000D01*
X20000D01*
Y525000D01*
X60261D01*
Y517500D01*
X57761Y515000D01*
X20000D01*
Y20000D01*
X255000D01*
Y0D01*
X0D01*
Y540000D01*
X57830D01*
Y537961D01*
D02*
G37*
%LPC*%
G36*
X248120Y470050D02*
X227580D01*
Y461320D01*
X227580Y460510D01*
X227580Y459240D01*
Y451320D01*
X227580Y450510D01*
X227580Y449240D01*
Y447850D01*
X221469D01*
X220486Y447654D01*
X219652Y447097D01*
X211298Y438743D01*
X210741Y437909D01*
X210546Y436926D01*
Y422759D01*
X150837Y363051D01*
X137144Y349357D01*
X135970Y349843D01*
Y367100D01*
X126430D01*
Y346560D01*
X132687D01*
X133173Y345387D01*
X130900Y343114D01*
X127496D01*
X126512Y342918D01*
X125679Y342361D01*
X123582Y340264D01*
X123025Y339431D01*
X122830Y338447D01*
Y333979D01*
X122879Y333731D01*
Y330959D01*
X135080D01*
X135735Y329689D01*
X135422Y329249D01*
X134629D01*
Y324209D01*
Y314209D01*
X137401D01*
X137649Y314160D01*
X139980D01*
X142545Y311595D01*
Y310110D01*
X143195Y308540D01*
X144396Y307339D01*
X145965Y306689D01*
X147664D01*
X149233Y307339D01*
X150013Y306392D01*
X149010Y305390D01*
X134579D01*
X132968Y307000D01*
Y309479D01*
X132919Y309727D01*
Y312499D01*
X112879D01*
Y312048D01*
X103250D01*
Y316199D01*
X102824D01*
Y327259D01*
X103250D01*
Y327266D01*
X104424Y327752D01*
X107263Y324912D01*
X108097Y324355D01*
X109080Y324160D01*
X110129D01*
Y314209D01*
X116169D01*
Y319209D01*
Y329249D01*
X113397D01*
X113149Y329299D01*
X110145D01*
X105897Y333546D01*
X105063Y334103D01*
X104080Y334299D01*
X103250D01*
Y336199D01*
X94710D01*
Y327259D01*
X95136D01*
Y316199D01*
X94710D01*
Y307259D01*
X95315D01*
X96031Y306100D01*
X95683Y305483D01*
X95625Y305403D01*
X95460Y305239D01*
X94810Y303670D01*
Y301971D01*
X95460Y300401D01*
X96662Y299200D01*
X98231Y298550D01*
X99930D01*
X101499Y299200D01*
X102700Y300401D01*
X103350Y301971D01*
Y303670D01*
X102700Y305239D01*
X102536Y305403D01*
X102322Y305695D01*
X102825Y306910D01*
X112879D01*
Y306459D01*
X127830D01*
Y305936D01*
X128025Y304953D01*
X128582Y304119D01*
X131698Y301003D01*
X132531Y300446D01*
X133515Y300251D01*
X149010D01*
X150061Y299200D01*
X151630Y298550D01*
X153329D01*
X154899Y299200D01*
X156100Y300401D01*
X156750Y301971D01*
Y302612D01*
X161511D01*
X161652Y301371D01*
X160840Y300437D01*
X160786Y300385D01*
X159705Y300170D01*
X158789Y299558D01*
X152714Y293483D01*
X150367D01*
X149287Y294563D01*
X147817Y295172D01*
X146226D01*
X144756Y294563D01*
X143630Y293437D01*
X143021Y291967D01*
Y290376D01*
X143630Y288906D01*
X144756Y287781D01*
X146226Y287172D01*
X147817D01*
X149287Y287781D01*
X149341Y287834D01*
X153884D01*
X153884Y287834D01*
X154965Y288049D01*
X155881Y288661D01*
X160531Y293312D01*
X161652Y293751D01*
Y293751D01*
X161652Y293751D01*
X166975D01*
Y292839D01*
X167584Y291369D01*
X168709Y290244D01*
X170179Y289635D01*
X171771D01*
X173241Y290244D01*
X173920Y290923D01*
X175412Y291031D01*
X176882Y290422D01*
X178473D01*
X179943Y291031D01*
X181068Y292156D01*
X181677Y293626D01*
Y295218D01*
X181068Y296688D01*
X180748Y297008D01*
Y301371D01*
X180270D01*
Y303238D01*
X180074Y304221D01*
X179517Y305055D01*
X177574Y306998D01*
X176740Y307555D01*
X175757Y307750D01*
X154841D01*
X153857Y307555D01*
X153162Y307090D01*
X151630D01*
X150061Y306440D01*
X149281Y307387D01*
X150435Y308540D01*
X151085Y310110D01*
Y311808D01*
X150435Y313378D01*
X149233Y314579D01*
X147664Y315229D01*
X146178D01*
X143518Y317890D01*
X144044Y319160D01*
X151005D01*
X151296Y319218D01*
X152452Y318258D01*
X152455Y318252D01*
Y309909D01*
X161495D01*
Y318949D01*
X159274D01*
Y322909D01*
X160915D01*
X161225Y322909D01*
X162185D01*
X162495Y322909D01*
X171225D01*
Y322909D01*
X171656Y323197D01*
X171749Y323159D01*
X172874D01*
X190299Y305733D01*
X191216Y305121D01*
X192296Y304906D01*
X192297Y304906D01*
X237648D01*
Y295179D01*
X236363D01*
Y286138D01*
X237648D01*
Y282294D01*
X236363D01*
Y273254D01*
X236544D01*
X237222Y272240D01*
Y270541D01*
X237648Y269512D01*
Y266482D01*
X232888Y261722D01*
X171422D01*
Y269360D01*
X167715D01*
Y275345D01*
X167525Y276303D01*
Y277247D01*
X168152Y278257D01*
X169018Y278257D01*
X174248D01*
Y285877D01*
X169018D01*
X168152Y285877D01*
X166882Y285877D01*
X161652D01*
Y278257D01*
X161876D01*
Y275536D01*
X161876Y275536D01*
X162067Y274577D01*
Y261722D01*
X135726D01*
X134697Y262148D01*
X132999D01*
X131429Y261498D01*
X131234Y261303D01*
X129338Y261368D01*
X128054Y261157D01*
X126948Y260472D01*
X109083Y243784D01*
X109080Y243784D01*
X103600D01*
Y244720D01*
X85560D01*
Y236180D01*
X103600D01*
Y237116D01*
X105746D01*
Y211143D01*
Y183155D01*
Y173303D01*
X101084Y168640D01*
X85560D01*
Y160100D01*
X103600D01*
Y161822D01*
X103886Y162013D01*
X111438Y169564D01*
X112161Y170646D01*
X112414Y171922D01*
Y179821D01*
X152455D01*
X154613Y177663D01*
Y176159D01*
X151661D01*
Y165767D01*
X150455D01*
X149179Y165513D01*
X148097Y164791D01*
X147633Y164095D01*
X146893Y163806D01*
X146338Y163918D01*
X146131Y164758D01*
X146131Y164894D01*
X146131Y164894D01*
X146131Y164908D01*
Y176265D01*
X132541D01*
Y163663D01*
X135046D01*
X135336Y163229D01*
Y161637D01*
X135945Y160167D01*
X136002Y160110D01*
Y158814D01*
X136256Y157538D01*
X136978Y156456D01*
X137022Y156428D01*
Y154025D01*
X137007D01*
Y144135D01*
X137007Y143275D01*
X136147Y143275D01*
X132001D01*
X131777Y143320D01*
X127255D01*
X126510Y144065D01*
X125759Y144566D01*
X124873Y144742D01*
X104111D01*
X103034Y145819D01*
X101564Y146428D01*
X99973D01*
X98503Y145819D01*
X97378Y144694D01*
X96769Y143224D01*
Y141632D01*
X97378Y140162D01*
X98503Y139037D01*
X99973Y138428D01*
X101564D01*
X103034Y139037D01*
X104111Y140114D01*
X114223D01*
X114874Y138844D01*
X114450Y137820D01*
Y136228D01*
X114489Y136134D01*
X114313Y135762D01*
X113590Y134985D01*
X112353D01*
X110883Y134376D01*
X109758Y133251D01*
X109149Y131780D01*
Y130189D01*
X109758Y128719D01*
X110446Y128031D01*
X109920Y126761D01*
X109603D01*
X108133Y126152D01*
X107008Y125027D01*
X106399Y123556D01*
Y121965D01*
X107008Y120495D01*
X107976Y119527D01*
X107980Y119504D01*
X107906Y118673D01*
X107739Y118158D01*
X106726Y117739D01*
X105600Y116614D01*
X104991Y115143D01*
Y113552D01*
X105600Y112082D01*
X106726Y110957D01*
X107365Y110692D01*
Y109317D01*
X107261Y109274D01*
X106135Y108148D01*
X105526Y106678D01*
Y105087D01*
X106135Y103617D01*
X107261Y102492D01*
X107221Y101133D01*
X106784Y100952D01*
X105658Y99827D01*
X105049Y98357D01*
Y97207D01*
X103839Y96622D01*
X101954Y98506D01*
Y101081D01*
X101764D01*
Y102363D01*
X102202D01*
Y109403D01*
X101764D01*
Y110828D01*
X102202D01*
Y117868D01*
X102203D01*
Y119083D01*
X102202D01*
Y126123D01*
X101764D01*
Y127465D01*
X102200D01*
Y134505D01*
X92885D01*
X91726Y134985D01*
X90135D01*
X88976Y134505D01*
X87160D01*
Y132336D01*
X86930Y131780D01*
Y130189D01*
X87160Y129634D01*
Y127465D01*
X87624D01*
X88151Y126195D01*
X88079Y126123D01*
X87162D01*
Y123954D01*
X86932Y123398D01*
Y121807D01*
X87162Y121252D01*
Y119083D01*
X87162D01*
Y117868D01*
X87162D01*
Y115699D01*
X86932Y115143D01*
Y113552D01*
X87162Y112997D01*
Y110828D01*
X87414D01*
X87936Y109558D01*
X87779Y109403D01*
X87162D01*
Y107234D01*
X86932Y106678D01*
Y105087D01*
X87162Y104532D01*
Y102363D01*
X87162D01*
X87474Y101093D01*
X87465Y101081D01*
X86914D01*
Y98912D01*
X86684Y98357D01*
Y96766D01*
X86914Y96210D01*
Y94041D01*
X88730D01*
X89889Y93561D01*
X91480D01*
X92639Y94041D01*
X96989D01*
X103846Y87185D01*
X104927Y86462D01*
X106203Y86208D01*
X121029D01*
Y81189D01*
X133631D01*
Y94780D01*
X133077D01*
X132591Y95953D01*
X137396Y100758D01*
X138008Y101674D01*
X138112Y102195D01*
X139156Y103239D01*
X139232Y103257D01*
X139312Y103233D01*
X139670Y101796D01*
X139639Y101765D01*
X139030Y100295D01*
Y98703D01*
X139639Y97233D01*
X140206Y96666D01*
Y91221D01*
X138160D01*
Y81081D01*
X147900D01*
Y89703D01*
X147999Y89824D01*
X149170Y90447D01*
X150150Y90041D01*
X150649D01*
X151617Y89312D01*
Y80626D01*
Y72048D01*
X151617D01*
X151968Y70778D01*
X151886Y70696D01*
X151277Y69226D01*
Y67634D01*
X151886Y66164D01*
X153012Y65039D01*
X154482Y64430D01*
X156073D01*
X157543Y65039D01*
X158668Y66164D01*
X159277Y67634D01*
Y69226D01*
X158668Y70696D01*
X158587Y70778D01*
X159113Y72048D01*
X159881D01*
Y80626D01*
Y87975D01*
X160100Y88503D01*
X160570Y88911D01*
X161471Y89310D01*
X161756Y89192D01*
X163078D01*
X163348Y89192D01*
X164298Y88211D01*
Y80626D01*
Y72048D01*
X164525D01*
X165051Y70778D01*
X165039Y70766D01*
X164430Y69296D01*
Y67704D01*
X165039Y66234D01*
X166164Y65109D01*
X167635Y64500D01*
X169226D01*
X170696Y65109D01*
X171821Y66234D01*
X172430Y67704D01*
Y69296D01*
X171821Y70766D01*
X171810Y70778D01*
X172335Y72048D01*
X172563D01*
Y80626D01*
Y89312D01*
X170745D01*
Y101477D01*
X170569Y102363D01*
X170112Y103046D01*
X170231Y103606D01*
X170524Y104316D01*
X182754D01*
X192697Y94373D01*
X193447Y93871D01*
X194333Y93695D01*
X195770D01*
X196846Y92619D01*
X198316Y92010D01*
X199907D01*
X201378Y92619D01*
X202503Y93744D01*
X203112Y95214D01*
Y96805D01*
X202503Y98275D01*
X201378Y99401D01*
X199907Y100010D01*
X198316D01*
X196846Y99401D01*
X195770Y98324D01*
X195292D01*
X185349Y108267D01*
X184599Y108768D01*
X183713Y108945D01*
X165547D01*
Y113875D01*
X165547Y114735D01*
X166407Y114735D01*
X170554D01*
X170777Y114691D01*
X176355D01*
X179677Y111369D01*
X180428Y110867D01*
X181314Y110691D01*
X190394D01*
Y109235D01*
X196933D01*
Y109235D01*
X198204Y109810D01*
X198394Y109649D01*
Y109235D01*
X200313D01*
X200868Y109005D01*
X202459D01*
X203015Y109235D01*
X204933D01*
Y110618D01*
X205055Y110739D01*
X205664Y112210D01*
Y113801D01*
X205055Y115271D01*
X204933Y115392D01*
Y116775D01*
X203015D01*
X202459Y117005D01*
X200868D01*
X200313Y116775D01*
X198394D01*
Y116362D01*
X198204Y116201D01*
X196933Y116775D01*
Y116775D01*
X190394D01*
Y115320D01*
X187372D01*
X186846Y116590D01*
X187298Y117041D01*
X187907Y118511D01*
Y120103D01*
X187915Y120115D01*
X197834D01*
Y129855D01*
X188412D01*
X188025Y130549D01*
X187818Y131125D01*
X188379Y132478D01*
Y133094D01*
X207634D01*
Y142834D01*
X187694D01*
Y142598D01*
X180552D01*
X179471Y142383D01*
X178555Y141771D01*
X177943Y140855D01*
X177567Y140742D01*
X176297Y141685D01*
Y142442D01*
X182485Y148629D01*
X187694D01*
Y146074D01*
X197834D01*
Y155814D01*
X187694D01*
Y153258D01*
X181526D01*
X180640Y153082D01*
X179889Y152580D01*
X170592Y143283D01*
X170554Y143275D01*
X166407D01*
X165547Y143275D01*
X165547Y144135D01*
Y154025D01*
X161592D01*
Y154435D01*
X161416Y155320D01*
X160914Y156071D01*
X158405Y158580D01*
X157654Y159082D01*
X157263Y159160D01*
X156826Y160363D01*
X156833Y160501D01*
X159544Y163212D01*
X159928Y163288D01*
X160330Y163557D01*
X165252D01*
Y176159D01*
X162300D01*
Y177663D01*
X175228Y190591D01*
X177412D01*
Y185155D01*
X199952D01*
Y202695D01*
X177412D01*
Y197259D01*
X173847D01*
X172571Y197005D01*
X171490Y196282D01*
X158457Y183249D01*
X156194Y185512D01*
X155112Y186235D01*
X153836Y186489D01*
X112414D01*
Y207192D01*
X118980D01*
Y206256D01*
X127920D01*
Y213786D01*
X127920Y214796D01*
X128098Y215992D01*
X130618D01*
X131894Y216246D01*
X132976Y216969D01*
X143165Y227158D01*
X158490D01*
Y244698D01*
X135950D01*
Y229373D01*
X129237Y222660D01*
X127920D01*
Y223596D01*
X118980D01*
Y216066D01*
X118980Y215056D01*
X118801Y213860D01*
X112414D01*
Y237751D01*
X112716Y238052D01*
X130491Y254656D01*
X131050Y254637D01*
X131429Y254258D01*
X132999Y253608D01*
X134697D01*
X135726Y254034D01*
X234480D01*
X234480Y254034D01*
X235951Y254327D01*
X237199Y255160D01*
X244210Y262172D01*
X244210Y262172D01*
X245044Y263419D01*
X245336Y264890D01*
X245336Y264890D01*
Y269512D01*
X245762Y270541D01*
Y272240D01*
X245365Y273198D01*
X245403Y273254D01*
X245403D01*
Y282294D01*
X245336D01*
Y286138D01*
X245403D01*
Y295179D01*
X245336D01*
Y307730D01*
Y316729D01*
Y332837D01*
X245336Y332837D01*
X245044Y334308D01*
X244210Y335555D01*
X244210Y335555D01*
X234316Y345449D01*
X233069Y346282D01*
X231598Y346575D01*
X231598Y346575D01*
X228084D01*
X225970Y348688D01*
Y367100D01*
X216430D01*
Y346560D01*
X217647D01*
X217649Y346551D01*
X218482Y345304D01*
X223773Y340013D01*
X223773Y340013D01*
X225021Y339180D01*
X226492Y338887D01*
X230006D01*
X237648Y331245D01*
Y319553D01*
X226584D01*
X226439Y319650D01*
X225773Y319783D01*
X219148D01*
X218482Y319650D01*
X217917Y319273D01*
X217539Y318708D01*
X217407Y318042D01*
Y315417D01*
X217539Y314750D01*
X217917Y314186D01*
X218482Y313808D01*
X219148Y313676D01*
X225773D01*
X226439Y313808D01*
X226584Y313905D01*
X237648D01*
Y310555D01*
X193466D01*
X176868Y327153D01*
Y328278D01*
X176218Y329848D01*
X175809Y330256D01*
X176218Y331643D01*
X176753Y331758D01*
X176786Y331753D01*
X183627Y324912D01*
X184461Y324355D01*
X185444Y324160D01*
X198555D01*
X199081Y323808D01*
X199748Y323676D01*
X206373D01*
X207039Y323808D01*
X207604Y324186D01*
X207981Y324750D01*
X208114Y325417D01*
Y328042D01*
X207981Y328708D01*
X207604Y329273D01*
X207039Y329650D01*
X206373Y329783D01*
X199748D01*
X199081Y329650D01*
X198555Y329299D01*
X186508D01*
X184917Y330890D01*
X185443Y332160D01*
X219891D01*
Y329783D01*
X219148D01*
X218482Y329650D01*
X217917Y329273D01*
X217539Y328708D01*
X217407Y328042D01*
Y325417D01*
X217539Y324750D01*
X217917Y324186D01*
X218482Y323808D01*
X219148Y323676D01*
X225773D01*
X226439Y323808D01*
X227004Y324186D01*
X227381Y324750D01*
X227514Y325417D01*
Y328042D01*
X227381Y328708D01*
X227004Y329273D01*
X226439Y329650D01*
X225773Y329783D01*
X225030D01*
Y334729D01*
X224834Y335712D01*
X224277Y336546D01*
X223444Y337103D01*
X222460Y337299D01*
X198848D01*
X198595Y338568D01*
X198876Y338685D01*
X200001Y339810D01*
X200610Y341280D01*
Y341361D01*
X203558Y344308D01*
X204281Y345390D01*
X204513Y346560D01*
X205970D01*
Y367100D01*
X197240D01*
X195833Y367100D01*
X195538Y367464D01*
X195144Y368370D01*
X195679Y369662D01*
Y371360D01*
X195028Y372930D01*
X193827Y374131D01*
X192258Y374781D01*
X190559D01*
X188990Y374131D01*
X187789Y372930D01*
X187139Y371360D01*
Y369662D01*
X187673Y368370D01*
X187279Y367464D01*
X186984Y367100D01*
X186430D01*
X185160Y367100D01*
X176430D01*
Y346560D01*
X185160D01*
X185970Y346560D01*
X187240Y346560D01*
X193778D01*
X194004Y346125D01*
X194168Y345290D01*
X193219Y344342D01*
X192610Y342872D01*
Y341280D01*
X193219Y339810D01*
X194344Y338685D01*
X194625Y338568D01*
X194373Y337299D01*
X185443D01*
X180380Y342361D01*
X179547Y342918D01*
X178563Y343114D01*
X169331D01*
X169079Y344384D01*
X169124Y344402D01*
X170325Y345603D01*
X170975Y347173D01*
Y348872D01*
X170325Y350441D01*
X169124Y351642D01*
X167554Y352292D01*
X165856D01*
X164286Y351642D01*
X163491Y350846D01*
X154439D01*
X153953Y352020D01*
X204988Y403054D01*
X205305Y403529D01*
X205411Y403462D01*
X206229Y404280D01*
X206162Y404386D01*
X206637Y404703D01*
X214644Y412711D01*
X226682D01*
X227580Y411813D01*
X227580Y410510D01*
X227580Y409240D01*
Y401320D01*
X227580Y400510D01*
X227580Y399240D01*
Y390510D01*
X248120D01*
Y399240D01*
X248120Y400050D01*
X248120Y401320D01*
Y409240D01*
X248120Y410050D01*
X248120Y411320D01*
Y420050D01*
X227580D01*
Y417850D01*
X214699D01*
X214173Y419120D01*
X214932Y419878D01*
X215489Y420712D01*
X215684Y421695D01*
Y435862D01*
X222533Y442711D01*
X226682D01*
X227580Y441813D01*
X227580Y440510D01*
X227580Y439240D01*
Y430510D01*
X248120D01*
Y439240D01*
X248120Y440050D01*
X248120Y441320D01*
Y449240D01*
X248120Y450050D01*
X248120Y451320D01*
Y459240D01*
X248120Y460050D01*
X248120Y461320D01*
Y470050D01*
D02*
G37*
G36*
X100120Y430050D02*
X79580D01*
Y421320D01*
X79580Y420510D01*
X79580Y419240D01*
Y411320D01*
X79580Y410510D01*
X79580Y409240D01*
Y401320D01*
X79580Y400510D01*
X79580Y399240D01*
Y390510D01*
X100120D01*
Y399240D01*
X100120Y400050D01*
X100120Y401320D01*
Y409240D01*
X100120Y410050D01*
X100120Y411320D01*
Y419240D01*
X100120Y420050D01*
X100120Y421320D01*
Y430050D01*
D02*
G37*
G36*
X144215Y535850D02*
X129369D01*
X128948Y535766D01*
X124899D01*
Y527226D01*
X124899Y527226D01*
Y526966D01*
X124899D01*
X124899Y525956D01*
Y523393D01*
X124760Y522696D01*
Y518096D01*
X125111Y516333D01*
X126110Y514837D01*
X126430Y514517D01*
Y494560D01*
X127866D01*
Y487697D01*
X126942Y486315D01*
X126591Y484551D01*
X126942Y482787D01*
X127941Y481292D01*
X129436Y480293D01*
X131200Y479942D01*
X132964Y480293D01*
X134459Y481292D01*
X134459Y481293D01*
X135458Y482788D01*
X135660Y483804D01*
X136930Y483702D01*
X137580Y482133D01*
X138781Y480931D01*
X140351Y480281D01*
X142050D01*
X143619Y480931D01*
X144820Y482133D01*
X145470Y483702D01*
Y485401D01*
X144820Y486970D01*
X144534Y487256D01*
Y493662D01*
X145432Y494560D01*
X145970D01*
Y494560D01*
X146430D01*
Y494560D01*
X155160D01*
X155970Y494560D01*
X157240Y494560D01*
X166044Y494560D01*
X166792Y493440D01*
X166705Y493230D01*
Y491531D01*
X167355Y489962D01*
X168556Y488760D01*
X170126Y488110D01*
X171824D01*
X173394Y488760D01*
X174595Y489962D01*
X175245Y491531D01*
Y493230D01*
X175131Y493504D01*
X175837Y494560D01*
X177240Y494560D01*
X185160D01*
X185970Y494560D01*
X187240Y494560D01*
X195160D01*
X196526Y494560D01*
X197232Y493504D01*
X197096Y493176D01*
Y491585D01*
X197705Y490115D01*
X198830Y488989D01*
X200300Y488380D01*
X201891D01*
X203362Y488989D01*
X204487Y490115D01*
X205096Y491585D01*
Y493176D01*
X204960Y493504D01*
X205665Y494560D01*
X207478Y494560D01*
X208376Y493662D01*
Y460096D01*
X138853Y390573D01*
X137727D01*
X136158Y389923D01*
X134957Y388722D01*
X134307Y387152D01*
Y385454D01*
X134957Y383884D01*
X136158Y382683D01*
X137727Y382033D01*
X138208Y380763D01*
X134645Y377200D01*
X133520D01*
X131950Y376550D01*
X130749Y375348D01*
X130099Y373779D01*
Y372080D01*
X130749Y370511D01*
X131950Y369310D01*
X133520Y368660D01*
X135218D01*
X136788Y369310D01*
X137989Y370511D01*
X138639Y372080D01*
Y373205D01*
X223197Y457764D01*
X223810Y458680D01*
X224025Y459761D01*
Y494560D01*
X225970D01*
Y515100D01*
X216430D01*
Y515100D01*
X215970D01*
Y515100D01*
X207240D01*
X206430Y515100D01*
X205160Y515100D01*
X197240D01*
X196430Y515100D01*
X195160Y515100D01*
X187240D01*
X186430Y515100D01*
X185160Y515100D01*
X177240D01*
X176430Y515100D01*
X175160Y515100D01*
X167240D01*
X166430Y515100D01*
X165160Y515100D01*
X157240D01*
X156430Y515100D01*
X155160Y515100D01*
X149394D01*
X149020Y515545D01*
X148579Y516370D01*
X148823Y517596D01*
X148823Y517596D01*
Y522696D01*
X148685Y523393D01*
Y525956D01*
X148685Y526966D01*
X148685D01*
Y527226D01*
X148685D01*
Y535766D01*
X144635D01*
X144215Y535850D01*
D02*
G37*
G36*
X125218Y291612D02*
X123520D01*
X121950Y290962D01*
X121339Y290351D01*
X120510Y289893D01*
X119680Y290351D01*
X119069Y290962D01*
X117500Y291612D01*
X115801D01*
X114232Y290962D01*
X113030Y289761D01*
X112380Y288191D01*
Y286493D01*
X113030Y284923D01*
X113821Y284133D01*
Y282860D01*
X104870Y273909D01*
X103600Y274435D01*
Y274720D01*
X85560D01*
Y266180D01*
X103600D01*
Y267626D01*
X105405D01*
X105406Y267626D01*
X106486Y267841D01*
X107403Y268453D01*
X118647Y279698D01*
X118647Y279698D01*
X119260Y280614D01*
X119474Y281695D01*
Y284128D01*
X119680Y284333D01*
X120510Y284791D01*
X121339Y284333D01*
X121545Y284128D01*
Y278352D01*
X106467Y263274D01*
X103600D01*
Y264720D01*
X85560D01*
Y256180D01*
X103600D01*
Y257626D01*
X107637D01*
X107637Y257626D01*
X108718Y257841D01*
X109634Y258453D01*
X126366Y275185D01*
X126978Y276101D01*
X127193Y277182D01*
Y284128D01*
X127989Y284923D01*
X128639Y286493D01*
Y288191D01*
X127989Y289761D01*
X126788Y290962D01*
X125218Y291612D01*
D02*
G37*
G36*
X199952Y244698D02*
X177412D01*
Y227158D01*
X193458D01*
X203286Y217329D01*
X203286Y217329D01*
X204203Y216717D01*
X205284Y216502D01*
X205284Y216502D01*
X207740D01*
Y215056D01*
X216680D01*
Y223596D01*
X207740D01*
Y222151D01*
X206453D01*
X199952Y228652D01*
Y244698D01*
D02*
G37*
G36*
X103600Y198640D02*
X85560D01*
Y190100D01*
X103600D01*
Y198640D01*
D02*
G37*
G36*
Y188640D02*
X85560D01*
Y180100D01*
X103600D01*
Y183261D01*
X103730Y183575D01*
Y185166D01*
X103600Y185480D01*
Y188640D01*
D02*
G37*
G36*
X233609Y251904D02*
X232018D01*
X230548Y251295D01*
X229422Y250170D01*
X228813Y248700D01*
Y247108D01*
X228932Y246822D01*
X228670Y246430D01*
X228670D01*
Y237390D01*
X230366D01*
Y235475D01*
X228670D01*
Y226435D01*
X230366D01*
Y224475D01*
X228670D01*
Y215435D01*
X237400D01*
X237767Y215435D01*
X238293Y214165D01*
X218843Y194715D01*
X218120Y193633D01*
X217866Y192357D01*
Y177389D01*
X218120Y176113D01*
X218843Y175031D01*
X229874Y164000D01*
Y153250D01*
X248114D01*
Y171490D01*
X231814D01*
X224534Y178770D01*
Y190976D01*
X245548Y211990D01*
X246271Y213071D01*
X246525Y214347D01*
Y215435D01*
X247710D01*
Y224475D01*
X238981D01*
X238670Y224475D01*
X237710D01*
X237400Y224475D01*
X236015D01*
Y226435D01*
X237710D01*
Y235475D01*
X236015D01*
Y237390D01*
X237710D01*
Y246430D01*
X237267D01*
X236813Y247109D01*
Y248700D01*
X236204Y250170D01*
X235079Y251295D01*
X233609Y251904D01*
D02*
G37*
G36*
X248220Y92750D02*
X229980D01*
Y74510D01*
X248220D01*
Y92750D01*
D02*
G37*
%LPD*%
G36*
X156963Y153476D02*
Y148505D01*
X157007Y148282D01*
Y142985D01*
X164397D01*
X165257Y142985D01*
X165257Y142126D01*
Y130735D01*
X170554D01*
X170777Y130691D01*
X181305D01*
X182113Y129883D01*
X182723Y129630D01*
X183311Y128101D01*
X183073Y127594D01*
X182663Y127320D01*
X170777D01*
X170554Y127275D01*
X165257D01*
Y115885D01*
X165257Y115025D01*
X164397Y115025D01*
X138157D01*
X137297Y115025D01*
X137297Y115885D01*
Y130735D01*
Y142125D01*
X137297Y142985D01*
X138157Y142985D01*
X153547D01*
Y154025D01*
X154567Y154629D01*
X155810D01*
X156963Y153476D01*
D02*
G37*
G36*
X136147Y114735D02*
X137007Y114735D01*
X137007Y113875D01*
Y109729D01*
X136963Y109505D01*
Y107592D01*
X134839Y105468D01*
X134318Y105365D01*
X133402Y104752D01*
X126506Y97857D01*
X126054Y97767D01*
X124973Y97044D01*
X124250Y95962D01*
X124015Y94780D01*
X121029D01*
Y92876D01*
X111510D01*
X111258Y94146D01*
X111315Y94170D01*
X112441Y95295D01*
X113049Y96766D01*
Y98288D01*
X124857Y110096D01*
X129452Y114691D01*
X131777D01*
X132001Y114735D01*
X136147D01*
D02*
G37*
D12*
X204820Y406520D02*
X203171Y404871D01*
X152480Y302820D02*
X154841Y305181D01*
X177700Y297561D02*
Y303238D01*
X175757Y305181D02*
X177700Y303238D01*
X154841Y305181D02*
X175757D01*
X178563Y340544D02*
X184379Y334729D01*
X222460D01*
X152689Y340544D02*
X178563D01*
X151954Y334645D02*
X177528D01*
X185444Y326729D02*
X203060D01*
X177528Y334645D02*
X185444Y326729D01*
X204820Y406520D02*
X213580Y415280D01*
X135399Y337099D02*
X203171Y404871D01*
X98980Y311729D02*
X101230Y309479D01*
X98980Y311729D02*
X98980Y311729D01*
X99080Y302820D02*
Y309129D01*
X101230Y309479D02*
X115399D01*
X98980Y331729D02*
X104080D01*
X109080Y326729D01*
X113149D01*
X222460D02*
Y334729D01*
X133515Y302820D02*
X152480D01*
X130399Y305936D02*
Y309479D01*
Y305936D02*
X133515Y302820D01*
X125399Y333979D02*
Y338447D01*
X152654Y361234D02*
X213115Y421695D01*
Y436926D02*
X221469Y445280D01*
X237850D01*
X213115Y421695D02*
Y436926D01*
X127496Y340544D02*
X131964D01*
X125399Y338447D02*
X127496Y340544D01*
X131964D02*
X152654Y361234D01*
X156705Y314699D02*
Y327429D01*
Y314699D02*
X156975Y314429D01*
X137649Y321729D02*
X151005D01*
X156705Y327429D01*
X213580Y415280D02*
X237850D01*
X135399Y333979D02*
Y337099D01*
X141045Y316729D02*
X146815Y310959D01*
X137649Y316729D02*
X141045D01*
X146710Y329479D02*
X151954Y334645D01*
D13*
X159277Y148505D02*
Y154435D01*
X156768Y156944D02*
X159277Y154435D01*
X149590Y156944D02*
X156768D01*
X147277Y154631D02*
X149590Y156944D01*
X147277Y148505D02*
Y154631D01*
X143277Y155255D02*
X150455Y162433D01*
X150946Y94041D02*
X151277Y96330D01*
X156201Y89542D02*
Y102755D01*
Y85421D02*
Y89542D01*
X194333Y96010D02*
X199112D01*
X183713Y106630D02*
X194333Y96010D01*
X163277Y106630D02*
X183713D01*
X168430Y68500D02*
Y76391D01*
X162228Y96330D02*
X162552Y93192D01*
X151277Y96330D02*
Y109505D01*
X159471Y98911D02*
Y104110D01*
Y98911D02*
X162052Y96330D01*
X128493Y117005D02*
X131777D01*
X123221Y111733D02*
X128493Y117005D01*
X109049Y97561D02*
X123221Y111733D01*
X109526Y105883D02*
X111399Y106755D01*
X108991Y114348D02*
X113319D01*
X123976Y125005D01*
X111399Y106755D02*
X125649Y121005D01*
X131777D01*
X123976Y125005D02*
X131777D01*
X116976Y122761D02*
X123221Y129005D01*
X110399Y122761D02*
X116976D01*
X123221Y129005D02*
X131777D01*
X121440Y133005D02*
X131777D01*
X113149Y130985D02*
X119419D01*
X121440Y133005D01*
X118450Y137024D02*
X131759D01*
X168430Y84969D02*
Y101477D01*
X155277Y103679D02*
Y109505D01*
Y103679D02*
X156201Y102755D01*
X159277Y104304D02*
Y109505D01*
Y104304D02*
X159471Y104110D01*
X163277Y106630D02*
X168430Y101477D01*
X162052Y96330D02*
X162228D01*
X155749Y84969D02*
X156201Y85421D01*
X155277Y75919D02*
X155749Y76391D01*
X155277Y68430D02*
Y75919D01*
X143030Y99499D02*
X147277Y103746D01*
Y109505D01*
X135399Y102755D02*
X139277Y106634D01*
Y109505D01*
X181314Y113005D02*
X193664D01*
X177314Y117005D02*
X181314Y113005D01*
X170777Y117005D02*
X177314D01*
X183855Y119255D02*
X183907Y119307D01*
X182503Y119255D02*
X183855D01*
X180753Y121005D02*
X182503Y119255D01*
X170777Y121005D02*
X180753D01*
X184133Y125005D02*
X184154Y124985D01*
X170777Y125005D02*
X184133D01*
X170777Y133005D02*
X184379D01*
X177783Y137005D02*
X180552Y139774D01*
X170777Y137005D02*
X177783D01*
X181526Y150944D02*
X192764D01*
X171588Y141005D02*
X181526Y150944D01*
X170777Y141005D02*
X171588D01*
X126296D02*
X131777D01*
X124873Y142428D02*
X126296Y141005D01*
X100769Y142428D02*
X124873D01*
X131759Y137024D02*
X131777Y137005D01*
X143277Y148505D02*
Y155255D01*
X139336Y148564D02*
Y158814D01*
D19*
X147220Y235928D02*
D03*
Y193925D02*
D03*
X188682D02*
D03*
Y235928D02*
D03*
D20*
X171200Y282067D02*
D03*
Y297561D02*
D03*
X164700D02*
D03*
X177700D02*
D03*
X164700Y282067D02*
D03*
X177700D02*
D03*
D21*
X171200Y504830D02*
D03*
X121200D02*
D03*
X111200Y356830D02*
D03*
X121200D02*
D03*
X211200D02*
D03*
X201200D02*
D03*
X191200D02*
D03*
X181200D02*
D03*
X131200D02*
D03*
X151200Y504830D02*
D03*
X161200D02*
D03*
X181200D02*
D03*
X191200D02*
D03*
X201200D02*
D03*
X131200D02*
D03*
X111200D02*
D03*
X221200Y356830D02*
D03*
X141200Y504830D02*
D03*
X211200D02*
D03*
X221200D02*
D03*
D22*
X69330Y207370D02*
D03*
Y151370D02*
D03*
Y283450D02*
D03*
Y227450D02*
D03*
D23*
X94580Y174370D02*
D03*
Y250450D02*
D03*
Y164370D02*
D03*
Y240450D02*
D03*
Y260450D02*
D03*
Y270450D02*
D03*
Y184370D02*
D03*
Y194370D02*
D03*
D24*
X175952Y264890D02*
D03*
X90180Y311729D02*
D03*
X90180Y331729D02*
D03*
X167152Y264890D02*
D03*
X98980Y311729D02*
D03*
X98980Y331729D02*
D03*
D25*
X212210Y210526D02*
D03*
X123450D02*
D03*
X129369Y531496D02*
D03*
X144215D02*
D03*
Y522696D02*
D03*
X123450Y219326D02*
D03*
X129369Y522696D02*
D03*
X212210Y219326D02*
D03*
D26*
X230883Y277774D02*
D03*
Y290658D02*
D03*
X166975Y314429D02*
D03*
X243190Y241910D02*
D03*
Y230955D02*
D03*
X233190D02*
D03*
Y219955D02*
D03*
X243190D02*
D03*
X233190Y241910D02*
D03*
X240883Y277774D02*
D03*
Y290658D02*
D03*
X166705Y327429D02*
D03*
X74017Y521350D02*
D03*
X84017D02*
D03*
X156705Y327429D02*
D03*
X156975Y314429D02*
D03*
D27*
X135399Y309479D02*
D03*
X120399Y333979D02*
D03*
X115399D02*
D03*
Y309479D02*
D03*
X130399D02*
D03*
X125399Y333979D02*
D03*
X135399D02*
D03*
X125399Y309479D02*
D03*
X120399D02*
D03*
X130399Y333979D02*
D03*
D28*
X62330Y531350D02*
D03*
X94580D02*
D03*
X62330Y521350D02*
D03*
X94580D02*
D03*
D29*
X212760Y321729D02*
D03*
D30*
X203060Y316729D02*
D03*
X222460D02*
D03*
Y326729D02*
D03*
X203060D02*
D03*
D31*
X237850Y425280D02*
D03*
Y465280D02*
D03*
Y455280D02*
D03*
Y435280D02*
D03*
Y405280D02*
D03*
Y395280D02*
D03*
X89850D02*
D03*
Y405280D02*
D03*
Y415280D02*
D03*
Y425280D02*
D03*
X237850Y415280D02*
D03*
Y445280D02*
D03*
D32*
X172468Y169858D02*
D03*
X125324Y169964D02*
D03*
X139336D02*
D03*
X158457Y169858D02*
D03*
D33*
X202564Y150944D02*
D03*
Y124985D02*
D03*
X192764D02*
D03*
Y137964D02*
D03*
X202564D02*
D03*
X192764Y150944D02*
D03*
D34*
X83430Y130985D02*
D03*
X83432Y122603D02*
D03*
Y114348D02*
D03*
Y105883D02*
D03*
X83184Y97561D02*
D03*
X98184D02*
D03*
X90684D02*
D03*
D03*
X98432Y105883D02*
D03*
X90932D02*
D03*
D03*
X98432Y114348D02*
D03*
X90932D02*
D03*
D03*
X98432Y122603D02*
D03*
X90932D02*
D03*
D03*
X98430Y130985D02*
D03*
X90930D02*
D03*
D03*
D35*
X170777Y129005D02*
D03*
X131777Y117005D02*
D03*
Y121005D02*
D03*
Y125005D02*
D03*
Y129005D02*
D03*
Y133005D02*
D03*
Y137005D02*
D03*
Y141005D02*
D03*
X170777D02*
D03*
Y137005D02*
D03*
Y133005D02*
D03*
Y125005D02*
D03*
Y121005D02*
D03*
Y117005D02*
D03*
D36*
X155277Y148505D02*
D03*
X163277Y109505D02*
D03*
X159277D02*
D03*
X155277D02*
D03*
X151277D02*
D03*
X147277D02*
D03*
X143277D02*
D03*
X139277D02*
D03*
Y148505D02*
D03*
X143277D02*
D03*
X147277D02*
D03*
X151277D02*
D03*
X159277D02*
D03*
X163277D02*
D03*
D37*
X151277Y129005D02*
D03*
D38*
X143030Y76351D02*
D03*
Y86151D02*
D03*
D39*
X127330Y73973D02*
D03*
Y87984D02*
D03*
D40*
X155749Y76391D02*
D03*
Y84969D02*
D03*
X168430Y76391D02*
D03*
Y84969D02*
D03*
D41*
X193664Y113005D02*
D03*
X201664D02*
D03*
D42*
X137649Y326729D02*
D03*
X113149Y326729D02*
D03*
X137649Y321729D02*
D03*
Y316729D02*
D03*
X113149Y321729D02*
D03*
Y316729D02*
D03*
D62*
X239100Y109030D02*
D03*
X238994Y187770D02*
D03*
D63*
Y162370D02*
D03*
X239100Y83630D02*
D03*
D64*
X111200Y515096D02*
X110724Y517490D01*
X109368Y519519D01*
X107340Y520874D01*
X104946Y521350D01*
X141200Y504830D02*
Y514582D01*
X144215Y517596D01*
Y522696D01*
X62330Y521350D02*
X74017D01*
X84017D02*
X94580D01*
X104946D01*
X111200Y504830D02*
Y515096D01*
X129369Y518096D02*
Y522696D01*
Y518096D02*
X131200Y516265D01*
X131200Y484551D02*
X131200Y484551D01*
Y504830D02*
Y516265D01*
D65*
X150455Y162433D02*
X154050D01*
X158457Y166839D01*
X236219Y162370D02*
X238994D01*
X221200Y177389D02*
X236219Y162370D01*
X221200Y177389D02*
Y192357D01*
X243190Y214347D01*
Y219955D01*
X109080Y211143D02*
X109697Y210526D01*
X123450D01*
X109080Y211143D02*
Y239132D01*
X125772Y89542D02*
X127330Y87984D01*
X106203Y89542D02*
X125772D01*
X98184Y97561D02*
X106203Y89542D01*
X98184Y97561D02*
X98430Y97807D01*
Y130985D01*
X127330Y87984D02*
Y94687D01*
X139336Y162433D02*
Y169964D01*
X109080Y183155D02*
Y211143D01*
Y171922D02*
Y183155D01*
X153836D02*
X158457Y178534D01*
X109080Y183155D02*
X153836D01*
X158457Y178534D02*
X173847Y193925D01*
X188682D01*
X139336Y158814D02*
Y162433D01*
X130618Y219326D02*
X147220Y235928D01*
X123450Y219326D02*
X130618D01*
X196610Y342076D02*
X201200Y346666D01*
Y356830D01*
X109080Y239132D02*
X110399Y240450D01*
X129224Y258036D01*
X94580Y240450D02*
X109080D01*
X129224Y258036D02*
X133848Y257878D01*
X94580Y164370D02*
X101529D01*
X109080Y171922D01*
X141200Y484551D02*
Y504830D01*
X131200Y484551D02*
Y504830D01*
D66*
X241492Y271390D02*
Y307730D01*
X158457Y166839D02*
Y178534D01*
X234480Y257878D02*
X241492Y264890D01*
X164891Y257878D02*
X234480D01*
X241492Y307730D02*
Y316729D01*
Y332837D01*
X98980Y311729D02*
Y331729D01*
Y309229D02*
Y311729D01*
Y309229D02*
X99080Y309129D01*
X133848Y257878D02*
X164891D01*
X221200Y348022D02*
Y356830D01*
X226492Y342731D02*
X231598D01*
X221200Y348022D02*
X226492Y342731D01*
X231598D02*
X241492Y332837D01*
Y264890D02*
Y271390D01*
D67*
X164891Y257878D02*
Y275345D01*
X186664Y124985D02*
X192764D01*
X143030Y86151D02*
Y99499D01*
X127330Y94687D02*
X135399Y102755D01*
X184154Y124985D02*
X186664D01*
X190954Y139774D02*
X192764Y137964D01*
X180552Y139774D02*
X190954D01*
X188682Y235928D02*
X205284Y219326D01*
X212210D01*
X164700Y275536D02*
X164891Y275345D01*
X164700Y275536D02*
Y282067D01*
X170975Y297336D02*
X171200Y297561D01*
X170975Y293635D02*
Y297336D01*
X147022Y291072D02*
Y291172D01*
Y291072D02*
X147435Y290658D01*
X153884D01*
X160786Y297561D01*
X164700D01*
X170975Y492380D02*
Y504605D01*
X171200Y504830D01*
X233190Y219955D02*
Y230955D01*
X232813Y242287D02*
X233190Y241910D01*
Y230955D02*
Y241910D01*
X232813Y242287D02*
Y247904D01*
X222460Y316729D02*
X241492D01*
X172598Y327429D02*
X192296Y307730D01*
X140399Y336414D02*
X152007Y348022D01*
X140399Y329479D02*
Y336414D01*
X152007Y348022D02*
X166705D01*
X164968Y267074D02*
X167152Y264890D01*
X137649Y326729D02*
X140399Y329479D01*
X192296Y307730D02*
X241492D01*
X166705Y327429D02*
X172598D01*
X221200Y459761D02*
Y504830D01*
X134369Y372930D02*
X221200Y459761D01*
X107637Y260450D02*
X124369Y277182D01*
X94580Y260450D02*
X107637D01*
X124369Y277182D02*
Y287342D01*
X211200Y458926D02*
Y504830D01*
X138577Y386303D02*
X211200Y458926D01*
X105406Y270450D02*
X116650Y281695D01*
X94580Y270450D02*
X105406D01*
X116650Y281695D02*
Y287342D01*
X201096Y504726D02*
X201200Y504830D01*
X201096Y492380D02*
Y504726D01*
X191200Y356830D02*
X191409Y357038D01*
Y370511D01*
D68*
X136792Y531496D02*
X144215D01*
X129369D02*
X136792D01*
D69*
X151277Y129005D02*
D03*
X150946Y94041D02*
D03*
X156201Y89542D02*
D03*
X240508Y532076D02*
D03*
Y522076D02*
D03*
Y512076D02*
D03*
Y502076D02*
D03*
Y492076D02*
D03*
Y482076D02*
D03*
Y382076D02*
D03*
Y372076D02*
D03*
Y362076D02*
D03*
Y352076D02*
D03*
Y252076D02*
D03*
Y202076D02*
D03*
Y142076D02*
D03*
Y132076D02*
D03*
Y122076D02*
D03*
Y62076D02*
D03*
Y52076D02*
D03*
X230508Y532076D02*
D03*
Y522076D02*
D03*
Y512076D02*
D03*
Y502076D02*
D03*
Y492076D02*
D03*
Y482076D02*
D03*
Y382076D02*
D03*
Y372076D02*
D03*
Y362076D02*
D03*
Y352076D02*
D03*
Y332076D02*
D03*
Y302076D02*
D03*
Y212076D02*
D03*
Y142076D02*
D03*
Y132076D02*
D03*
Y122076D02*
D03*
Y62076D02*
D03*
Y52076D02*
D03*
X220508Y532076D02*
D03*
Y522076D02*
D03*
Y432076D02*
D03*
Y422076D02*
D03*
Y402076D02*
D03*
Y392076D02*
D03*
Y382076D02*
D03*
Y372076D02*
D03*
Y302076D02*
D03*
Y292076D02*
D03*
Y282076D02*
D03*
Y272076D02*
D03*
Y242076D02*
D03*
Y232076D02*
D03*
Y222076D02*
D03*
Y212076D02*
D03*
Y202076D02*
D03*
Y152076D02*
D03*
Y142076D02*
D03*
Y132076D02*
D03*
Y122076D02*
D03*
Y112076D02*
D03*
Y102076D02*
D03*
Y92076D02*
D03*
Y72076D02*
D03*
Y62076D02*
D03*
Y52076D02*
D03*
X210508Y532076D02*
D03*
Y522076D02*
D03*
Y242076D02*
D03*
Y232076D02*
D03*
Y202076D02*
D03*
Y192076D02*
D03*
Y182076D02*
D03*
Y172076D02*
D03*
Y152076D02*
D03*
Y142076D02*
D03*
Y132076D02*
D03*
Y72076D02*
D03*
Y62076D02*
D03*
Y52076D02*
D03*
X200508Y532076D02*
D03*
Y522076D02*
D03*
Y482076D02*
D03*
Y472076D02*
D03*
Y462076D02*
D03*
Y422076D02*
D03*
Y392076D02*
D03*
Y382076D02*
D03*
Y372076D02*
D03*
Y302076D02*
D03*
Y292076D02*
D03*
Y282076D02*
D03*
Y212076D02*
D03*
Y182076D02*
D03*
Y172076D02*
D03*
Y72076D02*
D03*
Y62076D02*
D03*
Y52076D02*
D03*
X190508Y532076D02*
D03*
Y522076D02*
D03*
Y482076D02*
D03*
Y472076D02*
D03*
Y462076D02*
D03*
Y452076D02*
D03*
Y412076D02*
D03*
Y382076D02*
D03*
Y272076D02*
D03*
Y222076D02*
D03*
Y212076D02*
D03*
Y182076D02*
D03*
Y172076D02*
D03*
Y92076D02*
D03*
Y62076D02*
D03*
Y52076D02*
D03*
X180508Y532076D02*
D03*
Y522076D02*
D03*
Y222076D02*
D03*
Y212076D02*
D03*
Y182076D02*
D03*
Y82076D02*
D03*
Y72076D02*
D03*
Y52076D02*
D03*
X170508Y532076D02*
D03*
Y522076D02*
D03*
Y482076D02*
D03*
Y472076D02*
D03*
Y462076D02*
D03*
Y452076D02*
D03*
Y442076D02*
D03*
Y432076D02*
D03*
Y392076D02*
D03*
Y362076D02*
D03*
Y242076D02*
D03*
Y232076D02*
D03*
Y222076D02*
D03*
Y212076D02*
D03*
Y202076D02*
D03*
Y182076D02*
D03*
Y152076D02*
D03*
Y52076D02*
D03*
X160508Y532076D02*
D03*
Y522076D02*
D03*
Y222076D02*
D03*
Y212076D02*
D03*
Y52076D02*
D03*
X150508Y222076D02*
D03*
Y212076D02*
D03*
Y62076D02*
D03*
Y52076D02*
D03*
X140508Y462076D02*
D03*
Y452076D02*
D03*
Y442076D02*
D03*
Y432076D02*
D03*
Y422076D02*
D03*
Y412076D02*
D03*
Y402076D02*
D03*
Y362076D02*
D03*
Y292076D02*
D03*
Y282076D02*
D03*
Y272076D02*
D03*
Y212076D02*
D03*
Y62076D02*
D03*
Y52076D02*
D03*
X130508Y472076D02*
D03*
Y462076D02*
D03*
Y452076D02*
D03*
Y442076D02*
D03*
Y432076D02*
D03*
Y422076D02*
D03*
Y412076D02*
D03*
Y402076D02*
D03*
Y392076D02*
D03*
Y322076D02*
D03*
Y292076D02*
D03*
Y282076D02*
D03*
Y272076D02*
D03*
Y202076D02*
D03*
Y192076D02*
D03*
Y152076D02*
D03*
Y62076D02*
D03*
Y52076D02*
D03*
X120508Y532076D02*
D03*
Y522076D02*
D03*
Y492076D02*
D03*
Y482076D02*
D03*
Y472076D02*
D03*
Y462076D02*
D03*
Y452076D02*
D03*
Y442076D02*
D03*
Y432076D02*
D03*
Y422076D02*
D03*
Y412076D02*
D03*
Y402076D02*
D03*
Y392076D02*
D03*
Y382076D02*
D03*
Y262076D02*
D03*
Y202076D02*
D03*
Y192076D02*
D03*
Y152076D02*
D03*
Y62076D02*
D03*
Y52076D02*
D03*
X110508Y532076D02*
D03*
Y482076D02*
D03*
Y472076D02*
D03*
Y462076D02*
D03*
Y452076D02*
D03*
Y442076D02*
D03*
Y432076D02*
D03*
Y422076D02*
D03*
Y412076D02*
D03*
Y402076D02*
D03*
Y392076D02*
D03*
Y382076D02*
D03*
Y372076D02*
D03*
Y342076D02*
D03*
Y302076D02*
D03*
Y292076D02*
D03*
Y252076D02*
D03*
Y162076D02*
D03*
Y152076D02*
D03*
Y82076D02*
D03*
Y72076D02*
D03*
Y62076D02*
D03*
Y52076D02*
D03*
X100508Y512076D02*
D03*
Y502076D02*
D03*
Y492076D02*
D03*
Y482076D02*
D03*
Y472076D02*
D03*
Y462076D02*
D03*
Y452076D02*
D03*
Y442076D02*
D03*
Y382076D02*
D03*
Y372076D02*
D03*
Y362076D02*
D03*
Y352076D02*
D03*
Y342076D02*
D03*
Y282076D02*
D03*
Y232076D02*
D03*
Y222076D02*
D03*
Y82076D02*
D03*
Y72076D02*
D03*
Y62076D02*
D03*
Y52076D02*
D03*
X90508Y512076D02*
D03*
Y502076D02*
D03*
Y492076D02*
D03*
Y482076D02*
D03*
Y472076D02*
D03*
Y462076D02*
D03*
Y452076D02*
D03*
Y442076D02*
D03*
Y382076D02*
D03*
Y372076D02*
D03*
Y362076D02*
D03*
Y352076D02*
D03*
Y342076D02*
D03*
Y322076D02*
D03*
Y302076D02*
D03*
Y292076D02*
D03*
Y282076D02*
D03*
Y232076D02*
D03*
Y222076D02*
D03*
Y212076D02*
D03*
Y142076D02*
D03*
Y82076D02*
D03*
Y72076D02*
D03*
Y62076D02*
D03*
Y52076D02*
D03*
X80508Y532076D02*
D03*
Y512076D02*
D03*
Y502076D02*
D03*
Y492076D02*
D03*
Y482076D02*
D03*
Y472076D02*
D03*
Y462076D02*
D03*
Y452076D02*
D03*
Y442076D02*
D03*
Y382076D02*
D03*
Y372076D02*
D03*
Y362076D02*
D03*
Y352076D02*
D03*
Y342076D02*
D03*
Y332076D02*
D03*
Y322076D02*
D03*
Y312076D02*
D03*
Y302076D02*
D03*
Y272076D02*
D03*
Y262076D02*
D03*
Y252076D02*
D03*
Y242076D02*
D03*
Y192076D02*
D03*
Y182076D02*
D03*
Y172076D02*
D03*
Y162076D02*
D03*
Y142076D02*
D03*
Y82076D02*
D03*
Y72076D02*
D03*
Y62076D02*
D03*
Y52076D02*
D03*
X70508Y532076D02*
D03*
Y512076D02*
D03*
Y502076D02*
D03*
Y492076D02*
D03*
Y482076D02*
D03*
Y472076D02*
D03*
Y462076D02*
D03*
Y452076D02*
D03*
Y442076D02*
D03*
Y432076D02*
D03*
Y422076D02*
D03*
Y412076D02*
D03*
Y402076D02*
D03*
Y392076D02*
D03*
Y382076D02*
D03*
Y372076D02*
D03*
Y362076D02*
D03*
Y352076D02*
D03*
Y342076D02*
D03*
Y332076D02*
D03*
Y322076D02*
D03*
Y312076D02*
D03*
Y302076D02*
D03*
Y272076D02*
D03*
Y262076D02*
D03*
Y252076D02*
D03*
Y242076D02*
D03*
Y192076D02*
D03*
Y182076D02*
D03*
Y172076D02*
D03*
Y162076D02*
D03*
Y132076D02*
D03*
Y122076D02*
D03*
Y112076D02*
D03*
Y102076D02*
D03*
Y92076D02*
D03*
Y82076D02*
D03*
Y72076D02*
D03*
Y62076D02*
D03*
Y52076D02*
D03*
X60508Y502076D02*
D03*
Y492076D02*
D03*
Y482076D02*
D03*
Y472076D02*
D03*
Y462076D02*
D03*
Y452076D02*
D03*
Y442076D02*
D03*
Y432076D02*
D03*
Y422076D02*
D03*
Y412076D02*
D03*
Y402076D02*
D03*
Y392076D02*
D03*
Y382076D02*
D03*
Y372076D02*
D03*
Y362076D02*
D03*
Y352076D02*
D03*
Y342076D02*
D03*
Y332076D02*
D03*
Y322076D02*
D03*
Y312076D02*
D03*
Y302076D02*
D03*
Y272076D02*
D03*
Y262076D02*
D03*
Y252076D02*
D03*
Y242076D02*
D03*
Y192076D02*
D03*
Y182076D02*
D03*
Y172076D02*
D03*
Y162076D02*
D03*
Y132076D02*
D03*
Y122076D02*
D03*
Y112076D02*
D03*
Y102076D02*
D03*
Y92076D02*
D03*
Y82076D02*
D03*
Y72076D02*
D03*
Y62076D02*
D03*
Y52076D02*
D03*
X199112Y96010D02*
D03*
X168430Y68500D02*
D03*
X186664Y124985D02*
D03*
X143030Y99499D02*
D03*
X162552Y93192D02*
D03*
X109049Y97561D02*
D03*
X109526Y105883D02*
D03*
X108991Y114348D02*
D03*
X118450Y137024D02*
D03*
X90684Y97561D02*
D03*
X110399Y122761D02*
D03*
X113149Y130985D02*
D03*
X90932Y105883D02*
D03*
Y114348D02*
D03*
Y122603D02*
D03*
X90930Y130985D02*
D03*
X155277Y68430D02*
D03*
X201664Y113005D02*
D03*
X183907Y119307D02*
D03*
X202914Y137964D02*
D03*
X184379Y133274D02*
D03*
X100769Y142428D02*
D03*
X99730Y184370D02*
D03*
X139336Y162433D02*
D03*
X147220Y235928D02*
D03*
X177677Y294422D02*
D03*
X170975Y293635D02*
D03*
X147022Y291172D02*
D03*
X232813Y247904D02*
D03*
X188682Y235928D02*
D03*
X196610Y342076D02*
D03*
X136792Y531496D02*
D03*
X94580Y194370D02*
D03*
X201096Y492380D02*
D03*
D70*
X170975D02*
D03*
X172598Y327429D02*
D03*
X133848Y257878D02*
D03*
X241492Y271390D02*
D03*
X99080Y302820D02*
D03*
X166705Y348022D02*
D03*
X124369Y287342D02*
D03*
X134369Y372930D02*
D03*
X116650Y287342D02*
D03*
X138577Y386303D02*
D03*
X152480Y302820D02*
D03*
X141200Y484551D02*
D03*
X152689Y340544D02*
D03*
X146705Y329479D02*
D03*
X146815Y310959D02*
D03*
X131200Y484551D02*
D03*
X191409Y370511D02*
D03*
M02*
