G04*
G04 #@! TF.GenerationSoftware,Altium Limited,Altium Designer,25.8.1 (18)*
G04*
G04 Layer_Physical_Order=2*
G04 Layer_Color=16711680*
%FSLAX44Y44*%
%MOMM*%
G71*
G04*
G04 #@! TF.SameCoordinates,7E297B50-0598-46DA-9FDC-CB526C42688E*
G04*
G04*
G04 #@! TF.FilePolarity,Positive*
G04*
G01*
G75*
%ADD12C,0.2500*%
%ADD13C,0.2000*%
%ADD62C,1.5700*%
%ADD63R,1.5700X1.5700*%
%ADD65C,0.4000*%
%ADD67C,0.3000*%
%ADD69C,0.4500*%
%ADD70C,0.6000*%
%ADD71R,0.4000X0.3000*%
G36*
X252961Y40000D02*
X237039D01*
X236884Y40780D01*
X236442Y41442D01*
X235780Y41884D01*
X235000Y42039D01*
X55000D01*
Y72961D01*
X55780Y73116D01*
X56442Y73558D01*
X56884Y74220D01*
X57039Y75000D01*
Y515000D01*
X56884Y515780D01*
X56442Y516442D01*
X55780Y516884D01*
X55000Y517039D01*
Y537961D01*
X252961D01*
Y40000D01*
D02*
G37*
%LPC*%
G36*
X137587Y535496D02*
X135996D01*
X134526Y534887D01*
X133401Y533762D01*
X132792Y532292D01*
Y530701D01*
X133401Y529230D01*
X133968Y528664D01*
Y501253D01*
X133968Y501253D01*
X134183Y500172D01*
X134795Y499256D01*
X155681Y478370D01*
Y475751D01*
X154673Y475353D01*
X154411Y475335D01*
X145470Y484276D01*
Y485401D01*
X144820Y486970D01*
X143619Y488171D01*
X142050Y488821D01*
X140351D01*
X138781Y488171D01*
X137580Y486970D01*
X137103Y485817D01*
X135973Y485290D01*
X135660Y485254D01*
X135470Y485381D01*
Y485400D01*
X134820Y486970D01*
X133619Y488171D01*
X132049Y488821D01*
X130351D01*
X128781Y488171D01*
X127580Y486970D01*
X126930Y485400D01*
Y483702D01*
X127580Y482132D01*
X128781Y480931D01*
X130351Y480281D01*
X131476D01*
X143989Y467767D01*
X143927Y387863D01*
X142657Y387611D01*
X142197Y388722D01*
X140996Y389923D01*
X139426Y390573D01*
X137727D01*
X136158Y389923D01*
X134957Y388722D01*
X134307Y387152D01*
Y386027D01*
X114653Y366373D01*
X114041Y365457D01*
X113826Y364376D01*
X113826Y364376D01*
Y290556D01*
X113030Y289761D01*
X112380Y288191D01*
Y286493D01*
X113030Y284923D01*
X114232Y283722D01*
X115801Y283072D01*
X117500D01*
X119069Y283722D01*
X119680Y284333D01*
X120510Y284791D01*
X121339Y284333D01*
X121950Y283722D01*
X123520Y283072D01*
X125218D01*
X126788Y283722D01*
X127989Y284923D01*
X128639Y286493D01*
Y288191D01*
X127989Y289761D01*
X127193Y290556D01*
Y361760D01*
X134093Y368660D01*
X135218D01*
X136788Y369310D01*
X137989Y370511D01*
X138639Y372080D01*
Y373779D01*
X137989Y375348D01*
X136788Y376550D01*
X135218Y377200D01*
X134738Y378470D01*
X138301Y382033D01*
X139426D01*
X140996Y382683D01*
X142197Y383884D01*
X142655Y384990D01*
X143925Y384737D01*
X143886Y334731D01*
X143886Y334730D01*
X143886Y334729D01*
Y332698D01*
X143085Y331898D01*
X142435Y330328D01*
Y328630D01*
X143085Y327060D01*
X143904Y326242D01*
X143972Y314155D01*
X143195Y313378D01*
X142545Y311808D01*
Y310110D01*
X143195Y308540D01*
X143990Y307745D01*
Y305737D01*
X143885Y305210D01*
X143886Y305210D01*
Y300430D01*
X143885Y300430D01*
X143990Y299903D01*
Y294687D01*
X143881Y294136D01*
X143881Y294135D01*
Y293688D01*
X143630Y293437D01*
X143021Y291967D01*
Y290376D01*
X143630Y288906D01*
X143881Y288655D01*
Y260103D01*
X138384Y254606D01*
X137468Y255459D01*
X138118Y257029D01*
Y258727D01*
X137468Y260297D01*
X136267Y261498D01*
X134697Y262148D01*
X133497D01*
X101904Y293740D01*
Y299606D01*
X102700Y300401D01*
X103350Y301971D01*
Y303670D01*
X102700Y305239D01*
X101499Y306440D01*
X99930Y307090D01*
X98231D01*
X96662Y306440D01*
X95460Y305239D01*
X94810Y303670D01*
Y301971D01*
X95460Y300401D01*
X96256Y299606D01*
Y292570D01*
X96256Y292570D01*
X96471Y291490D01*
X97083Y290573D01*
X129578Y258079D01*
Y257029D01*
X130228Y255459D01*
X131429Y254258D01*
X132999Y253608D01*
X134697D01*
X136266Y254258D01*
X137120Y253341D01*
X92583Y208805D01*
X91971Y207889D01*
X91756Y206808D01*
X91756Y206808D01*
Y197203D01*
X91189Y196636D01*
X90580Y195166D01*
Y193575D01*
X91189Y192104D01*
X91756Y191538D01*
Y187931D01*
X91621Y187729D01*
X91406Y186648D01*
X91406Y186648D01*
Y182092D01*
X91406Y182092D01*
X91621Y181011D01*
X91756Y180809D01*
Y149520D01*
X91971Y148439D01*
X92583Y147523D01*
X93499Y146911D01*
X93570Y146897D01*
X96908Y143559D01*
X96769Y143224D01*
Y141632D01*
X97378Y140162D01*
X98503Y139037D01*
X99973Y138428D01*
X101564D01*
X103034Y139037D01*
X104160Y140162D01*
X104769Y141632D01*
X106039Y142087D01*
X111968Y136158D01*
X111641Y134690D01*
X110883Y134376D01*
X109807Y133299D01*
X94273D01*
X93196Y134376D01*
X91726Y134985D01*
X90135D01*
X88665Y134376D01*
X87539Y133251D01*
X86930Y131780D01*
Y130189D01*
X87539Y128719D01*
X88665Y127594D01*
X88938Y127481D01*
Y126106D01*
X88667Y125994D01*
X87541Y124868D01*
X86932Y123398D01*
Y121807D01*
X87541Y120337D01*
X88667Y119212D01*
X88785Y119163D01*
Y117788D01*
X88667Y117739D01*
X87541Y116614D01*
X86932Y115143D01*
Y113552D01*
X87541Y112082D01*
X88667Y110957D01*
X89039Y110802D01*
Y109428D01*
X88667Y109274D01*
X87541Y108148D01*
X86932Y106678D01*
Y105087D01*
X87541Y103617D01*
X88667Y102492D01*
X88741Y102461D01*
Y101086D01*
X88419Y100952D01*
X87293Y99827D01*
X86684Y98357D01*
Y96766D01*
X87293Y95295D01*
X88419Y94170D01*
X89889Y93561D01*
X91480D01*
X92950Y94170D01*
X94027Y95247D01*
X105707D01*
X106784Y94170D01*
X108254Y93561D01*
X109845D01*
X111315Y94170D01*
X112441Y95295D01*
X113049Y96766D01*
Y98357D01*
X112441Y99827D01*
X111315Y100952D01*
X111355Y102310D01*
X111792Y102492D01*
X112917Y103617D01*
X113526Y105087D01*
Y106678D01*
X112917Y108148D01*
X111792Y109274D01*
X111152Y109539D01*
Y110913D01*
X111257Y110957D01*
X112382Y112082D01*
X112991Y113552D01*
Y115143D01*
X112382Y116614D01*
X111414Y117582D01*
X111410Y117604D01*
X111484Y118436D01*
X111652Y118950D01*
X112665Y119370D01*
X113790Y120495D01*
X114399Y121965D01*
Y123556D01*
X113790Y125027D01*
X113102Y125715D01*
X113628Y126985D01*
X113945D01*
X115415Y127594D01*
X116540Y128719D01*
X117149Y130189D01*
Y131780D01*
X117110Y131875D01*
X117286Y132247D01*
X118008Y133024D01*
X119245D01*
X120716Y133633D01*
X121841Y134758D01*
X122450Y136228D01*
Y137820D01*
X121841Y139290D01*
X120716Y140415D01*
X119245Y141024D01*
X117654D01*
X116184Y140415D01*
X115581Y139812D01*
X102300Y153094D01*
Y181283D01*
X103121Y182104D01*
X103730Y183575D01*
Y184737D01*
X106647Y187653D01*
X107204Y188487D01*
X107400Y189470D01*
Y207021D01*
X179708Y279329D01*
X180265Y280162D01*
X180460Y281145D01*
Y291548D01*
X181068Y292156D01*
X181677Y293626D01*
Y295218D01*
X181068Y296688D01*
X179943Y297813D01*
X178473Y298422D01*
X176882D01*
X175412Y297813D01*
X175295Y297696D01*
X174025Y298222D01*
Y304298D01*
X182158Y312432D01*
X182158Y312432D01*
X182770Y313348D01*
X182985Y314429D01*
X182985Y314429D01*
Y480458D01*
X182985Y480458D01*
X182770Y481539D01*
X182158Y482455D01*
X174611Y490001D01*
X175245Y491531D01*
Y493230D01*
X174595Y494799D01*
X173394Y496000D01*
X171824Y496650D01*
X170126D01*
X168556Y496000D01*
X167355Y494799D01*
X166705Y493230D01*
Y491531D01*
X167355Y489962D01*
X168269Y489047D01*
X168366Y488563D01*
X168978Y487646D01*
X177337Y479288D01*
Y330388D01*
X176780Y330119D01*
X176066Y329999D01*
X175017Y331049D01*
X173447Y331699D01*
X172322D01*
X169529Y334492D01*
Y344808D01*
X170325Y345603D01*
X170975Y347173D01*
Y348872D01*
X170325Y350441D01*
X169124Y351642D01*
X167554Y352292D01*
X166429D01*
X161329Y357392D01*
Y479539D01*
X161329Y479540D01*
X161114Y480620D01*
X160502Y481537D01*
X139616Y502423D01*
Y528664D01*
X140183Y529230D01*
X140792Y530701D01*
Y532292D01*
X140183Y533762D01*
X139058Y534887D01*
X137587Y535496D01*
D02*
G37*
G36*
X201891Y496380D02*
X200300D01*
X198830Y495771D01*
X197705Y494646D01*
X197096Y493176D01*
Y491585D01*
X197705Y490115D01*
X198830Y488989D01*
X200300Y488380D01*
X201102D01*
X210291Y479191D01*
Y357419D01*
X209021Y356893D01*
X195679Y370235D01*
Y371360D01*
X195028Y372930D01*
X193827Y374131D01*
X192258Y374781D01*
X190559D01*
X188990Y374131D01*
X187789Y372930D01*
X187139Y371360D01*
Y369662D01*
X187789Y368092D01*
X188990Y366891D01*
X190559Y366241D01*
X191684D01*
X204791Y353134D01*
Y281718D01*
X186578Y263505D01*
X185966Y262589D01*
X185751Y261508D01*
X185751Y261508D01*
Y238653D01*
X185291Y238194D01*
X184682Y236723D01*
Y235132D01*
X185291Y233662D01*
X186416Y232537D01*
X187887Y231928D01*
X189478D01*
X190948Y232537D01*
X192073Y233662D01*
X192682Y235132D01*
Y236723D01*
X192073Y238194D01*
X191399Y238867D01*
Y260339D01*
X209021Y277960D01*
X210291Y277434D01*
Y262110D01*
X210291Y262110D01*
X210506Y261029D01*
X211118Y260113D01*
X223823Y247409D01*
X223823Y247409D01*
X224739Y246796D01*
X225820Y246581D01*
X229032D01*
X229422Y245638D01*
X230548Y244513D01*
X232018Y243904D01*
X233609D01*
X235079Y244513D01*
X236204Y245638D01*
X236813Y247108D01*
Y248700D01*
X236204Y250170D01*
X235079Y251295D01*
X233609Y251904D01*
X232558D01*
X232393Y252015D01*
X231312Y252230D01*
X231312Y252230D01*
X226989D01*
X215939Y263280D01*
Y480361D01*
X215939Y480361D01*
X215724Y481442D01*
X215112Y482358D01*
X215112Y482358D01*
X205096Y492374D01*
Y493176D01*
X204487Y494646D01*
X203362Y495771D01*
X201891Y496380D01*
D02*
G37*
G36*
X242342Y275660D02*
X240643D01*
X239074Y275010D01*
X237872Y273809D01*
X237222Y272240D01*
Y270541D01*
X237872Y268972D01*
X239074Y267770D01*
X240643Y267120D01*
X242342D01*
X243911Y267770D01*
X245112Y268972D01*
X245762Y270541D01*
Y272240D01*
X245112Y273809D01*
X243911Y275010D01*
X242342Y275660D01*
D02*
G37*
G36*
X197406Y346076D02*
X195815D01*
X194344Y345467D01*
X193219Y344342D01*
X192610Y342872D01*
Y342791D01*
X188151Y338331D01*
X187428Y337250D01*
X187174Y335974D01*
Y284876D01*
X144755Y242457D01*
X144032Y241376D01*
X143779Y240100D01*
Y238073D01*
X143220Y236723D01*
Y235132D01*
X143829Y233662D01*
X144954Y232537D01*
X146424Y231928D01*
X148015D01*
X149486Y232537D01*
X150611Y233662D01*
X151220Y235132D01*
Y236723D01*
X150611Y238194D01*
X150447Y238358D01*
Y238719D01*
X192866Y281138D01*
X193588Y282219D01*
X193842Y283495D01*
Y334593D01*
X197325Y338076D01*
X197406D01*
X198876Y338685D01*
X200001Y339810D01*
X200610Y341280D01*
Y342872D01*
X200001Y344342D01*
X198876Y345467D01*
X197406Y346076D01*
D02*
G37*
G36*
X248114Y171490D02*
X229874D01*
Y165767D01*
X141659D01*
X141602Y165824D01*
X140132Y166433D01*
X138540D01*
X137070Y165824D01*
X135945Y164699D01*
X135336Y163229D01*
Y161637D01*
X135945Y160167D01*
X137070Y159042D01*
X138540Y158433D01*
X140132D01*
X141602Y159042D01*
X141659Y159099D01*
X229874D01*
Y153250D01*
X248114D01*
Y171490D01*
D02*
G37*
G36*
X203709Y141964D02*
X202118D01*
X200648Y141355D01*
X199522Y140230D01*
X198914Y138760D01*
Y137237D01*
X197265Y135589D01*
X187721D01*
X186644Y136665D01*
X185174Y137274D01*
X183583D01*
X182113Y136665D01*
X180988Y135540D01*
X180379Y134070D01*
Y132478D01*
X180988Y131008D01*
X182113Y129883D01*
X183583Y129274D01*
X184026Y128004D01*
X183273Y127250D01*
X182664Y125780D01*
Y124189D01*
X183041Y123278D01*
X181641Y122698D01*
X180516Y121573D01*
X179907Y120103D01*
Y118511D01*
X180516Y117041D01*
X181641Y115916D01*
X183111Y115307D01*
X184702D01*
X186173Y115916D01*
X187249Y116993D01*
X198153D01*
X199074Y116072D01*
X198272Y115271D01*
X197664Y113801D01*
Y112210D01*
X198272Y110739D01*
X199398Y109614D01*
X200868Y109005D01*
X202459D01*
X203929Y109614D01*
X205055Y110739D01*
X205079Y110799D01*
X206349Y110546D01*
Y93169D01*
X205451Y92271D01*
X204876D01*
X203978Y93169D01*
Y93458D01*
X203802Y94344D01*
X203300Y95094D01*
X203112Y95283D01*
Y96805D01*
X202503Y98275D01*
X201378Y99401D01*
X199907Y100010D01*
X198316D01*
X196846Y99401D01*
X195721Y98275D01*
X195112Y96805D01*
Y95214D01*
X195721Y93744D01*
X196846Y92619D01*
X198316Y92010D01*
X198394D01*
X198393Y86731D01*
X197238Y86454D01*
X190567D01*
X187040Y89981D01*
X187040Y89981D01*
X175526Y101496D01*
X174609Y102108D01*
X173529Y102323D01*
X173528Y102323D01*
X151627D01*
X151535Y102305D01*
X150946Y102383D01*
X150357Y102305D01*
X150265Y102323D01*
X145863D01*
X145296Y102890D01*
X143826Y103499D01*
X142235D01*
X140765Y102890D01*
X139639Y101765D01*
X139030Y100295D01*
Y98703D01*
X139639Y97233D01*
X140765Y96108D01*
X142235Y95499D01*
X143826D01*
X145296Y96108D01*
X146131Y96014D01*
X146946Y94837D01*
Y93246D01*
X147555Y91776D01*
X148680Y90650D01*
X148683Y90649D01*
X148963Y72394D01*
X149054Y71971D01*
X149139Y71544D01*
X149149Y71529D01*
X149153Y71512D01*
X149399Y71155D01*
X149641Y70793D01*
X151277Y69157D01*
Y67634D01*
X151886Y66164D01*
X153012Y65039D01*
X154482Y64430D01*
X156073D01*
X157543Y65039D01*
X157603Y65099D01*
X157782Y65106D01*
X158951Y64651D01*
X159029Y64261D01*
X159531Y63510D01*
X161177Y61863D01*
X161928Y61362D01*
X162814Y61185D01*
X184468D01*
X185353Y61362D01*
X186104Y61863D01*
X196550Y72309D01*
X197052Y73060D01*
X197228Y73946D01*
Y74910D01*
X198184D01*
Y79548D01*
X198351Y80491D01*
X199337Y80731D01*
X204124D01*
X204933Y80731D01*
X204933Y80731D01*
X205394D01*
Y80731D01*
X206204Y80731D01*
X211934D01*
Y80806D01*
X229980D01*
Y74510D01*
X248220D01*
Y92750D01*
X229980D01*
Y86454D01*
X213089D01*
X211934Y86731D01*
X211934Y87724D01*
Y92271D01*
X210978D01*
Y118985D01*
X210802Y119870D01*
X210300Y120621D01*
X204300Y126621D01*
X203549Y127123D01*
X202664Y127299D01*
X190006D01*
X188929Y128376D01*
X187673Y128896D01*
X187309Y130158D01*
X187960Y130960D01*
X198223D01*
X199109Y131136D01*
X199860Y131637D01*
X202187Y133964D01*
X203709D01*
X205179Y134573D01*
X206305Y135698D01*
X206914Y137169D01*
Y138760D01*
X206305Y140230D01*
X205179Y141355D01*
X203709Y141964D01*
D02*
G37*
%LPD*%
G36*
X162435Y348298D02*
Y347173D01*
X163085Y345603D01*
X163881Y344808D01*
Y333322D01*
X163881Y333322D01*
X164096Y332241D01*
X164708Y331325D01*
X168328Y327705D01*
Y326580D01*
X168978Y325010D01*
X170179Y323809D01*
X171749Y323159D01*
X173447D01*
X175017Y323809D01*
X176066Y324859D01*
X176780Y324739D01*
X177337Y324469D01*
Y315599D01*
X169203Y307465D01*
X168591Y306549D01*
X168376Y305468D01*
X168376Y305468D01*
Y296693D01*
X167584Y295901D01*
X166975Y294431D01*
Y292839D01*
X167584Y291369D01*
X168709Y290244D01*
X170179Y289635D01*
X171771D01*
X173241Y290244D01*
X174051Y291055D01*
X175322Y290610D01*
Y282210D01*
X150946Y257834D01*
X150612Y257864D01*
X149529Y258933D01*
X149529Y258933D01*
Y288022D01*
X150413Y288906D01*
X151021Y290376D01*
Y291967D01*
X150413Y293437D01*
X149633Y294217D01*
X149639Y294245D01*
Y298001D01*
X150909Y298849D01*
X151630Y298550D01*
X153329D01*
X154899Y299200D01*
X156100Y300401D01*
X156750Y301971D01*
Y303670D01*
X156100Y305239D01*
X155299Y306040D01*
Y308018D01*
X155409Y308569D01*
Y313349D01*
X155299Y313900D01*
Y333660D01*
X155284Y333738D01*
X155403Y334645D01*
X155284Y335551D01*
X155299Y335629D01*
Y337116D01*
X156309Y338126D01*
X156959Y339695D01*
Y341394D01*
X156309Y342963D01*
X155299Y343973D01*
Y353748D01*
X156307Y354146D01*
X156569Y354164D01*
X162435Y348298D01*
D02*
G37*
G36*
X183046Y85987D02*
X183046Y85987D01*
X187400Y81633D01*
X187400Y81633D01*
X188317Y81021D01*
X189398Y80806D01*
X190521D01*
X191644Y80450D01*
Y74910D01*
X191644D01*
X191425Y73731D01*
X183509Y65814D01*
X173022D01*
X172174Y67084D01*
X172430Y67704D01*
Y69296D01*
X171821Y70766D01*
X170696Y71891D01*
X169226Y72500D01*
X167635D01*
X167634Y72500D01*
X164699Y75435D01*
X164835Y89818D01*
X165943Y90926D01*
X166552Y92396D01*
Y93988D01*
X165943Y95458D01*
X166522Y96675D01*
X172359D01*
X183046Y85987D01*
D02*
G37*
D12*
X114736Y137024D02*
X118450D01*
X99730Y152029D02*
X114736Y137024D01*
X94580Y149520D02*
X101230Y142870D01*
X99730Y152029D02*
Y184370D01*
X104830Y189470D01*
Y208085D02*
X177891Y281145D01*
Y294209D01*
X104830Y189470D02*
Y208085D01*
X177677Y294422D02*
X177891Y294209D01*
D13*
X150946Y94041D02*
X151277Y72430D01*
X156201Y74756D02*
Y89542D01*
X201664Y89501D02*
Y93458D01*
X199112Y96010D02*
X201664Y93458D01*
X156201Y74756D02*
X161167Y69790D01*
Y65147D02*
Y69790D01*
X162375Y74485D02*
X168395Y68465D01*
X162375Y74485D02*
X162552Y93192D01*
X194914Y73946D02*
Y77680D01*
X184468Y63500D02*
X194914Y73946D01*
X162814Y63500D02*
X184468D01*
X161167Y65147D02*
X162814Y63500D01*
X168395Y68465D02*
X168430Y68500D01*
X186664Y124985D02*
X202664D01*
X208664Y118985D01*
Y89501D02*
Y118985D01*
X201664Y113005D02*
Y116755D01*
X199112Y119307D02*
X201664Y116755D01*
X183907Y119307D02*
X199112D01*
X90684Y97561D02*
X109049D01*
X90932Y105883D02*
X109526D01*
X90932Y114348D02*
X108991D01*
X110241Y122603D02*
X110399Y122761D01*
X90932Y122603D02*
X110241D01*
X90930Y130985D02*
X113149D01*
X151277Y72430D02*
X155277Y68430D01*
X198223Y133274D02*
X202914Y137964D01*
X184379Y133274D02*
X198223D01*
D62*
X239100Y109030D02*
D03*
X238994Y187770D02*
D03*
D63*
Y162370D02*
D03*
X239100Y83630D02*
D03*
D65*
X238931Y162433D02*
X238994Y162370D01*
X139336Y162433D02*
X238931D01*
X147113Y235928D02*
Y240100D01*
X190508Y283495D02*
Y335974D01*
X147113Y240100D02*
X190508Y283495D01*
Y335974D02*
X196610Y342076D01*
D67*
X151627Y99499D02*
X150265D01*
X152475Y333660D02*
Y335629D01*
X207210Y83630D02*
X208664D01*
X143030Y99499D02*
X150265D01*
X208664Y83630D02*
X214810D01*
X151627Y99499D02*
X173529D01*
X185043Y87984D01*
X194914Y83630D02*
X199112D01*
X214810D02*
X239100D01*
X200414D02*
X207210D01*
X193664D02*
X194914D01*
X199112D02*
X200414D01*
X192296D02*
X193664D01*
X189398D02*
X192296D01*
X185043Y87984D02*
X189398Y83630D01*
X100769Y142428D02*
X100788D01*
X101230Y142870D01*
X94580Y149520D02*
Y181742D01*
X94230Y182092D02*
X94580Y181742D01*
X94230Y182092D02*
Y186648D01*
X94580Y186998D01*
Y194370D01*
X188575Y235928D02*
Y261508D01*
X207615Y280548D02*
Y354304D01*
X188575Y261508D02*
X207615Y280548D01*
X146705Y258933D02*
Y294136D01*
X94580Y194370D02*
Y206808D01*
X146705Y258933D01*
X170975Y293635D02*
X171200Y293860D01*
Y305468D01*
X180161Y314429D01*
Y480458D01*
X146705Y294136D02*
X146815Y294245D01*
X146710Y329479D02*
Y334729D01*
X170975Y489644D02*
Y492380D01*
Y489644D02*
X180161Y480458D01*
X231312Y249406D02*
X232813Y247904D01*
X225820Y249406D02*
X231312D01*
X213115Y262110D02*
X225820Y249406D01*
X191409Y370511D02*
X207615Y354304D01*
X213115Y262110D02*
Y480361D01*
X201096Y492380D02*
X213115Y480361D01*
X166705Y333322D02*
X172598Y327429D01*
X99080Y292570D02*
X133773Y257878D01*
X99080Y292570D02*
Y302820D01*
X158505Y356222D02*
Y479540D01*
X136792Y501253D02*
X158505Y479540D01*
X136792Y501253D02*
Y531496D01*
X158505Y356222D02*
X166705Y348022D01*
Y333322D02*
Y348022D01*
X124369Y287342D02*
Y362930D01*
X134369Y372930D01*
X116650Y287342D02*
Y364376D01*
X138577Y386303D01*
X141200Y484551D02*
X152475Y473277D01*
Y302825D02*
X152480Y302820D01*
X152475Y308459D02*
X152585Y308569D01*
X152475Y302825D02*
Y308459D01*
X152585Y308569D02*
Y313349D01*
X152475Y313459D02*
Y333660D01*
Y340544D02*
Y473277D01*
Y335629D02*
Y340544D01*
Y313459D02*
X152585Y313349D01*
X152475Y340544D02*
X152689D01*
X146705Y329479D02*
X146710D01*
X131200Y484551D02*
X146815Y468936D01*
Y294245D02*
Y300326D01*
X146710Y300430D02*
Y305210D01*
Y300430D02*
X146815Y300326D01*
X146710Y305210D02*
X146815Y305315D01*
Y310959D01*
X146710Y334729D02*
X146815Y468936D01*
X146710Y329479D02*
X146815Y310959D01*
D69*
X151277Y129005D02*
D03*
X150946Y94041D02*
D03*
X156201Y89542D02*
D03*
X240508Y532076D02*
D03*
Y522076D02*
D03*
Y512076D02*
D03*
Y502076D02*
D03*
Y492076D02*
D03*
Y482076D02*
D03*
Y382076D02*
D03*
Y372076D02*
D03*
Y362076D02*
D03*
Y352076D02*
D03*
Y252076D02*
D03*
Y202076D02*
D03*
Y142076D02*
D03*
Y132076D02*
D03*
Y122076D02*
D03*
Y62076D02*
D03*
Y52076D02*
D03*
X230508Y532076D02*
D03*
Y522076D02*
D03*
Y512076D02*
D03*
Y502076D02*
D03*
Y492076D02*
D03*
Y482076D02*
D03*
Y382076D02*
D03*
Y372076D02*
D03*
Y362076D02*
D03*
Y352076D02*
D03*
Y332076D02*
D03*
Y302076D02*
D03*
Y212076D02*
D03*
Y142076D02*
D03*
Y132076D02*
D03*
Y122076D02*
D03*
Y62076D02*
D03*
Y52076D02*
D03*
X220508Y532076D02*
D03*
Y522076D02*
D03*
Y432076D02*
D03*
Y422076D02*
D03*
Y402076D02*
D03*
Y392076D02*
D03*
Y382076D02*
D03*
Y372076D02*
D03*
Y302076D02*
D03*
Y292076D02*
D03*
Y282076D02*
D03*
Y272076D02*
D03*
Y242076D02*
D03*
Y232076D02*
D03*
Y222076D02*
D03*
Y212076D02*
D03*
Y202076D02*
D03*
Y152076D02*
D03*
Y142076D02*
D03*
Y132076D02*
D03*
Y122076D02*
D03*
Y112076D02*
D03*
Y102076D02*
D03*
Y92076D02*
D03*
Y72076D02*
D03*
Y62076D02*
D03*
Y52076D02*
D03*
X210508Y532076D02*
D03*
Y522076D02*
D03*
Y242076D02*
D03*
Y232076D02*
D03*
Y202076D02*
D03*
Y192076D02*
D03*
Y182076D02*
D03*
Y172076D02*
D03*
Y152076D02*
D03*
Y142076D02*
D03*
Y132076D02*
D03*
Y72076D02*
D03*
Y62076D02*
D03*
Y52076D02*
D03*
X200508Y532076D02*
D03*
Y522076D02*
D03*
Y482076D02*
D03*
Y472076D02*
D03*
Y462076D02*
D03*
Y422076D02*
D03*
Y392076D02*
D03*
Y382076D02*
D03*
Y372076D02*
D03*
Y302076D02*
D03*
Y292076D02*
D03*
Y282076D02*
D03*
Y212076D02*
D03*
Y182076D02*
D03*
Y172076D02*
D03*
Y72076D02*
D03*
Y62076D02*
D03*
Y52076D02*
D03*
X190508Y532076D02*
D03*
Y522076D02*
D03*
Y482076D02*
D03*
Y472076D02*
D03*
Y462076D02*
D03*
Y452076D02*
D03*
Y412076D02*
D03*
Y382076D02*
D03*
Y272076D02*
D03*
Y222076D02*
D03*
Y212076D02*
D03*
Y182076D02*
D03*
Y172076D02*
D03*
Y92076D02*
D03*
Y62076D02*
D03*
Y52076D02*
D03*
X180508Y532076D02*
D03*
Y522076D02*
D03*
Y222076D02*
D03*
Y212076D02*
D03*
Y182076D02*
D03*
Y82076D02*
D03*
Y72076D02*
D03*
Y52076D02*
D03*
X170508Y532076D02*
D03*
Y522076D02*
D03*
Y482076D02*
D03*
Y472076D02*
D03*
Y462076D02*
D03*
Y452076D02*
D03*
Y442076D02*
D03*
Y432076D02*
D03*
Y392076D02*
D03*
Y362076D02*
D03*
Y242076D02*
D03*
Y232076D02*
D03*
Y222076D02*
D03*
Y212076D02*
D03*
Y202076D02*
D03*
Y182076D02*
D03*
Y152076D02*
D03*
Y52076D02*
D03*
X160508Y532076D02*
D03*
Y522076D02*
D03*
Y222076D02*
D03*
Y212076D02*
D03*
Y52076D02*
D03*
X150508Y222076D02*
D03*
Y212076D02*
D03*
Y62076D02*
D03*
Y52076D02*
D03*
X140508Y462076D02*
D03*
Y452076D02*
D03*
Y442076D02*
D03*
Y432076D02*
D03*
Y422076D02*
D03*
Y412076D02*
D03*
Y402076D02*
D03*
Y362076D02*
D03*
Y292076D02*
D03*
Y282076D02*
D03*
Y272076D02*
D03*
Y212076D02*
D03*
Y62076D02*
D03*
Y52076D02*
D03*
X130508Y472076D02*
D03*
Y462076D02*
D03*
Y452076D02*
D03*
Y442076D02*
D03*
Y432076D02*
D03*
Y422076D02*
D03*
Y412076D02*
D03*
Y402076D02*
D03*
Y392076D02*
D03*
Y322076D02*
D03*
Y292076D02*
D03*
Y282076D02*
D03*
Y272076D02*
D03*
Y202076D02*
D03*
Y192076D02*
D03*
Y152076D02*
D03*
Y62076D02*
D03*
Y52076D02*
D03*
X120508Y532076D02*
D03*
Y522076D02*
D03*
Y492076D02*
D03*
Y482076D02*
D03*
Y472076D02*
D03*
Y462076D02*
D03*
Y452076D02*
D03*
Y442076D02*
D03*
Y432076D02*
D03*
Y422076D02*
D03*
Y412076D02*
D03*
Y402076D02*
D03*
Y392076D02*
D03*
Y382076D02*
D03*
Y262076D02*
D03*
Y202076D02*
D03*
Y192076D02*
D03*
Y152076D02*
D03*
Y62076D02*
D03*
Y52076D02*
D03*
X110508Y532076D02*
D03*
Y482076D02*
D03*
Y472076D02*
D03*
Y462076D02*
D03*
Y452076D02*
D03*
Y442076D02*
D03*
Y432076D02*
D03*
Y422076D02*
D03*
Y412076D02*
D03*
Y402076D02*
D03*
Y392076D02*
D03*
Y382076D02*
D03*
Y372076D02*
D03*
Y342076D02*
D03*
Y302076D02*
D03*
Y292076D02*
D03*
Y252076D02*
D03*
Y162076D02*
D03*
Y152076D02*
D03*
Y82076D02*
D03*
Y72076D02*
D03*
Y62076D02*
D03*
Y52076D02*
D03*
X100508Y512076D02*
D03*
Y502076D02*
D03*
Y492076D02*
D03*
Y482076D02*
D03*
Y472076D02*
D03*
Y462076D02*
D03*
Y452076D02*
D03*
Y442076D02*
D03*
Y382076D02*
D03*
Y372076D02*
D03*
Y362076D02*
D03*
Y352076D02*
D03*
Y342076D02*
D03*
Y282076D02*
D03*
Y232076D02*
D03*
Y222076D02*
D03*
Y82076D02*
D03*
Y72076D02*
D03*
Y62076D02*
D03*
Y52076D02*
D03*
X90508Y512076D02*
D03*
Y502076D02*
D03*
Y492076D02*
D03*
Y482076D02*
D03*
Y472076D02*
D03*
Y462076D02*
D03*
Y452076D02*
D03*
Y442076D02*
D03*
Y382076D02*
D03*
Y372076D02*
D03*
Y362076D02*
D03*
Y352076D02*
D03*
Y342076D02*
D03*
Y322076D02*
D03*
Y302076D02*
D03*
Y292076D02*
D03*
Y282076D02*
D03*
Y232076D02*
D03*
Y222076D02*
D03*
Y212076D02*
D03*
Y142076D02*
D03*
Y82076D02*
D03*
Y72076D02*
D03*
Y62076D02*
D03*
Y52076D02*
D03*
X80508Y532076D02*
D03*
Y512076D02*
D03*
Y502076D02*
D03*
Y492076D02*
D03*
Y482076D02*
D03*
Y472076D02*
D03*
Y462076D02*
D03*
Y452076D02*
D03*
Y442076D02*
D03*
Y382076D02*
D03*
Y372076D02*
D03*
Y362076D02*
D03*
Y352076D02*
D03*
Y342076D02*
D03*
Y332076D02*
D03*
Y322076D02*
D03*
Y312076D02*
D03*
Y302076D02*
D03*
Y272076D02*
D03*
Y262076D02*
D03*
Y252076D02*
D03*
Y242076D02*
D03*
Y192076D02*
D03*
Y182076D02*
D03*
Y172076D02*
D03*
Y162076D02*
D03*
Y142076D02*
D03*
Y82076D02*
D03*
Y72076D02*
D03*
Y62076D02*
D03*
Y52076D02*
D03*
X70508Y532076D02*
D03*
Y512076D02*
D03*
Y502076D02*
D03*
Y492076D02*
D03*
Y482076D02*
D03*
Y472076D02*
D03*
Y462076D02*
D03*
Y452076D02*
D03*
Y442076D02*
D03*
Y432076D02*
D03*
Y422076D02*
D03*
Y412076D02*
D03*
Y402076D02*
D03*
Y392076D02*
D03*
Y382076D02*
D03*
Y372076D02*
D03*
Y362076D02*
D03*
Y352076D02*
D03*
Y342076D02*
D03*
Y332076D02*
D03*
Y322076D02*
D03*
Y312076D02*
D03*
Y302076D02*
D03*
Y272076D02*
D03*
Y262076D02*
D03*
Y252076D02*
D03*
Y242076D02*
D03*
Y192076D02*
D03*
Y182076D02*
D03*
Y172076D02*
D03*
Y162076D02*
D03*
Y132076D02*
D03*
Y122076D02*
D03*
Y112076D02*
D03*
Y102076D02*
D03*
Y92076D02*
D03*
Y82076D02*
D03*
Y72076D02*
D03*
Y62076D02*
D03*
Y52076D02*
D03*
X60508Y502076D02*
D03*
Y492076D02*
D03*
Y482076D02*
D03*
Y472076D02*
D03*
Y462076D02*
D03*
Y452076D02*
D03*
Y442076D02*
D03*
Y432076D02*
D03*
Y422076D02*
D03*
Y412076D02*
D03*
Y402076D02*
D03*
Y392076D02*
D03*
Y382076D02*
D03*
Y372076D02*
D03*
Y362076D02*
D03*
Y352076D02*
D03*
Y342076D02*
D03*
Y332076D02*
D03*
Y322076D02*
D03*
Y312076D02*
D03*
Y302076D02*
D03*
Y272076D02*
D03*
Y262076D02*
D03*
Y252076D02*
D03*
Y242076D02*
D03*
Y192076D02*
D03*
Y182076D02*
D03*
Y172076D02*
D03*
Y162076D02*
D03*
Y132076D02*
D03*
Y122076D02*
D03*
Y112076D02*
D03*
Y102076D02*
D03*
Y92076D02*
D03*
Y82076D02*
D03*
Y72076D02*
D03*
Y62076D02*
D03*
Y52076D02*
D03*
X199112Y96010D02*
D03*
X168430Y68500D02*
D03*
X186664Y124985D02*
D03*
X143030Y99499D02*
D03*
X162552Y93192D02*
D03*
X109049Y97561D02*
D03*
X109526Y105883D02*
D03*
X108991Y114348D02*
D03*
X118450Y137024D02*
D03*
X90684Y97561D02*
D03*
X110399Y122761D02*
D03*
X113149Y130985D02*
D03*
X90932Y105883D02*
D03*
Y114348D02*
D03*
Y122603D02*
D03*
X90930Y130985D02*
D03*
X155277Y68430D02*
D03*
X201664Y113005D02*
D03*
X183907Y119307D02*
D03*
X202914Y137964D02*
D03*
X184379Y133274D02*
D03*
X100769Y142428D02*
D03*
X99730Y184370D02*
D03*
X139336Y162433D02*
D03*
X147220Y235928D02*
D03*
X177677Y294422D02*
D03*
X170975Y293635D02*
D03*
X147022Y291172D02*
D03*
X232813Y247904D02*
D03*
X188682Y235928D02*
D03*
X196610Y342076D02*
D03*
X136792Y531496D02*
D03*
X94580Y194370D02*
D03*
X201096Y492380D02*
D03*
D70*
X170975D02*
D03*
X172598Y327429D02*
D03*
X133848Y257878D02*
D03*
X241492Y271390D02*
D03*
X99080Y302820D02*
D03*
X166705Y348022D02*
D03*
X124369Y287342D02*
D03*
X134369Y372930D02*
D03*
X116650Y287342D02*
D03*
X138577Y386303D02*
D03*
X152480Y302820D02*
D03*
X141200Y484551D02*
D03*
X152689Y340544D02*
D03*
X146705Y329479D02*
D03*
X146815Y310959D02*
D03*
X131200Y484551D02*
D03*
X191409Y370511D02*
D03*
D71*
X194914Y83680D02*
D03*
Y77680D02*
D03*
X201664Y83501D02*
D03*
Y89501D02*
D03*
X208664Y83501D02*
D03*
Y89501D02*
D03*
M02*
