G04*
G04 #@! TF.GenerationSoftware,Altium Limited,Altium Designer,25.8.1 (18)*
G04*
G04 Layer_Color=65535*
%FSLAX44Y44*%
%MOMM*%
G71*
G04*
G04 #@! TF.SameCoordinates,7E297B50-0598-46DA-9FDC-CB526C42688E*
G04*
G04*
G04 #@! TF.FilePolarity,Positive*
G04*
G01*
G75*
%ADD10C,0.2540*%
%ADD11C,0.1524*%
%ADD12C,0.2500*%
%ADD13C,0.2000*%
%ADD14C,0.1270*%
%ADD15C,0.0127*%
%ADD16C,0.1000*%
%ADD17C,0.1651*%
%ADD18C,0.1500*%
D10*
X156201Y214926D02*
X155837Y217457D01*
X154775Y219782D01*
X153101Y221714D01*
X150951Y223096D01*
X148498Y223816D01*
X145942D01*
X143489Y223096D01*
X141338Y221714D01*
X139664Y219782D01*
X138602Y217457D01*
X138238Y214926D01*
X138602Y212396D01*
X139664Y210071D01*
X141338Y208139D01*
X143489Y206756D01*
X145941Y206036D01*
X148498D01*
X150951Y206756D01*
X153101Y208139D01*
X154775Y210070D01*
X155837Y212396D01*
X156201Y214926D01*
X197664D02*
X197300Y217457D01*
X196238Y219782D01*
X194564Y221714D01*
X192413Y223096D01*
X189960Y223816D01*
X187404D01*
X184951Y223096D01*
X182801Y221714D01*
X181126Y219782D01*
X180065Y217457D01*
X179701Y214926D01*
X180065Y212396D01*
X181126Y210071D01*
X182801Y208139D01*
X184951Y206756D01*
X187404Y206036D01*
X189960D01*
X192413Y206756D01*
X194564Y208139D01*
X196238Y210070D01*
X197300Y212396D01*
X197664Y214926D01*
X116399Y301729D02*
X114399D01*
X116399D01*
X132720Y194926D02*
X134908D01*
X159531D02*
X161720D01*
X132720Y234926D02*
X134908D01*
X159531D02*
X161720D01*
Y219510D02*
Y234926D01*
Y194926D02*
Y210343D01*
X132720Y194926D02*
Y210343D01*
Y219510D02*
Y234926D01*
X161720Y218234D02*
Y219510D01*
Y210343D02*
Y211618D01*
X132720Y210343D02*
Y211618D01*
Y218234D02*
Y219510D01*
X203182Y210343D02*
Y211618D01*
Y218234D02*
Y219510D01*
X174182Y218234D02*
Y219510D01*
Y210343D02*
Y211618D01*
X203182Y194926D02*
Y210343D01*
Y219510D02*
Y234926D01*
X174182Y219510D02*
Y234926D01*
Y194926D02*
Y210343D01*
Y194926D02*
X176371D01*
X200993D02*
X203182D01*
X174182Y234926D02*
X176371D01*
X200993D02*
X203182D01*
X117399Y313729D02*
X121399D01*
X117399Y317729D02*
X121399Y313729D01*
X117399D02*
Y317729D01*
D11*
X165716Y272519D02*
X164192Y273399D01*
Y271639D01*
X165716Y272519D01*
X182503Y285993D02*
Y293635D01*
X159897Y285993D02*
Y293635D01*
D12*
X240244Y140820D02*
X238369Y141903D01*
Y139738D01*
X240244Y140820D01*
X240350Y62080D02*
X238475Y63163D01*
Y60998D01*
X240350Y62080D01*
D13*
X176027Y111005D02*
X174027D01*
X176027D01*
X96580Y154370D02*
X94580D01*
X96580D01*
Y230450D02*
X94580D01*
X96580D01*
X227350Y310959D02*
X225350D01*
X227350D01*
X225794Y147170D02*
X252194D01*
Y202970D01*
X225794D02*
X252194D01*
X225794Y147170D02*
Y202970D01*
X225900Y68430D02*
X252300D01*
Y124230D01*
X225900D02*
X252300D01*
X225900Y68430D02*
Y124230D01*
X118299Y68448D02*
Y93510D01*
X136361Y68448D02*
Y93510D01*
X162612Y73318D02*
Y88042D01*
X148887Y73318D02*
Y88042D01*
X175293Y73318D02*
Y88042D01*
X161568Y73318D02*
Y88042D01*
X192164Y119255D02*
X203164D01*
X192164Y106755D02*
X203164D01*
X119799Y160933D02*
X144861D01*
X119799Y178995D02*
X144861D01*
X152931Y178889D02*
X177993D01*
X152931Y160827D02*
X177993D01*
X142783Y253422D02*
Y245424D01*
X146781D01*
X148114Y246757D01*
Y248090D01*
X146781Y249423D01*
X142783D01*
X146781D01*
X148114Y250756D01*
Y252089D01*
X146781Y253422D01*
X142783D01*
X150780Y245424D02*
X153446D01*
X152113D01*
Y253422D01*
X150780Y252089D01*
X140770Y294657D02*
Y287993D01*
X142103Y286660D01*
X144769D01*
X146102Y287993D01*
Y294657D01*
X152766Y286660D02*
Y294657D01*
X148768Y290658D01*
X154099D01*
X122288Y154942D02*
Y148278D01*
X123621Y146945D01*
X126287D01*
X127620Y148278D01*
Y154942D01*
X135617D02*
X130285D01*
Y150944D01*
X132951Y152276D01*
X134284D01*
X135617Y150944D01*
Y148278D01*
X134284Y146945D01*
X131618D01*
X130285Y148278D01*
X237935Y136714D02*
X235269D01*
X236602D01*
Y130049D01*
X235269Y128716D01*
X233936D01*
X232603Y130049D01*
X240601Y135381D02*
X241934Y136714D01*
X244600D01*
X245933Y135381D01*
Y134048D01*
X244600Y132715D01*
X243267D01*
X244600D01*
X245933Y131382D01*
Y130049D01*
X244600Y128716D01*
X241934D01*
X240601Y130049D01*
X107733Y161088D02*
X106400Y159755D01*
Y157089D01*
X107733Y155756D01*
X113065D01*
X114398Y157089D01*
Y159755D01*
X113065Y161088D01*
X114398Y163754D02*
X106400D01*
X114398Y169085D01*
X106400D01*
X114398Y171751D02*
Y174417D01*
Y173084D01*
X106400D01*
X107733Y171751D01*
Y178416D02*
X106400Y179748D01*
Y182414D01*
X107733Y183747D01*
X113065D01*
X114398Y182414D01*
Y179748D01*
X113065Y178416D01*
X107733D01*
X191348Y175083D02*
X192681Y176416D01*
Y179082D01*
X191348Y180415D01*
X186016D01*
X184683Y179082D01*
Y176416D01*
X186016Y175083D01*
X184683Y172418D02*
X192681D01*
X184683Y167086D01*
X192681D01*
X186016Y164420D02*
X184683Y163087D01*
Y160421D01*
X186016Y159088D01*
X191348D01*
X192681Y160421D01*
Y163087D01*
X191348Y164420D01*
X190015D01*
X188682Y163087D01*
Y159088D01*
X217296Y264776D02*
X215963Y266109D01*
X213298D01*
X211964Y264776D01*
Y259445D01*
X213298Y258112D01*
X215963D01*
X217296Y259445D01*
X219962Y258112D02*
Y266109D01*
X222628Y263443D01*
X225294Y266109D01*
Y258112D01*
X211964Y246123D02*
Y254120D01*
X215963D01*
X217296Y252787D01*
Y250122D01*
X215963Y248789D01*
X211964D01*
X214630D02*
X217296Y246123D01*
X219962Y252787D02*
X221295Y254120D01*
X223961D01*
X225294Y252787D01*
Y251455D01*
X223961Y250122D01*
X225294Y248789D01*
Y247456D01*
X223961Y246123D01*
X221295D01*
X219962Y247456D01*
Y248789D01*
X221295Y250122D01*
X219962Y251455D01*
Y252787D01*
X221295Y250122D02*
X223961D01*
X211964Y234452D02*
Y242449D01*
X215963D01*
X217296Y241116D01*
Y238450D01*
X215963Y237117D01*
X211964D01*
X214630D02*
X217296Y234452D01*
X219962Y242449D02*
X225294D01*
Y241116D01*
X219962Y235784D01*
Y234452D01*
X120067Y258119D02*
X117402D01*
X118735D01*
Y251455D01*
X117402Y250122D01*
X116069D01*
X114736Y251455D01*
X122733Y256786D02*
X124066Y258119D01*
X126732D01*
X128065Y256786D01*
Y255453D01*
X126732Y254120D01*
X125399D01*
X126732D01*
X128065Y252787D01*
Y251455D01*
X126732Y250122D01*
X124066D01*
X122733Y251455D01*
X118183Y239389D02*
X115517D01*
X116850D01*
Y232724D01*
X115517Y231392D01*
X114185D01*
X112852Y232724D01*
X126181Y231392D02*
X120849D01*
X126181Y236723D01*
Y238056D01*
X124848Y239389D01*
X122182D01*
X120849Y238056D01*
X231186Y325728D02*
Y319063D01*
X232519Y317731D01*
X235184D01*
X236517Y319063D01*
Y325728D01*
X244515Y317731D02*
X239183D01*
X244515Y323062D01*
Y324395D01*
X243182Y325728D01*
X240516D01*
X239183Y324395D01*
X71199Y486379D02*
Y479715D01*
X72532Y478382D01*
X75197D01*
X76530Y479715D01*
Y486379D01*
X79196Y478382D02*
X81862D01*
X80529D01*
Y486379D01*
X79196Y485046D01*
X173969Y310430D02*
Y318428D01*
X177968D01*
X179301Y317095D01*
Y314429D01*
X177968Y313096D01*
X173969D01*
X176635D02*
X179301Y310430D01*
X187298Y318428D02*
X184632Y317095D01*
X181966Y314429D01*
Y311763D01*
X183299Y310430D01*
X185965D01*
X187298Y311763D01*
Y313096D01*
X185965Y314429D01*
X181966D01*
X173969Y324143D02*
Y332141D01*
X177968D01*
X179301Y330808D01*
Y328142D01*
X177968Y326809D01*
X173969D01*
X176635D02*
X179301Y324143D01*
X187298Y332141D02*
X181966D01*
Y328142D01*
X184632Y329475D01*
X185965D01*
X187298Y328142D01*
Y325476D01*
X185965Y324143D01*
X183299D01*
X181966Y325476D01*
X127449Y188577D02*
X119451D01*
Y192576D01*
X120784Y193909D01*
X123450D01*
X124783Y192576D01*
Y188577D01*
Y191243D02*
X127449Y193909D01*
Y200573D02*
X119451D01*
X123450Y196575D01*
Y201906D01*
X216208Y187260D02*
X208211D01*
Y191259D01*
X209544Y192592D01*
X212210D01*
X213543Y191259D01*
Y187260D01*
Y189926D02*
X216208Y192592D01*
X209544Y195258D02*
X208211Y196591D01*
Y199256D01*
X209544Y200589D01*
X210877D01*
X212210Y199256D01*
Y197924D01*
Y199256D01*
X213543Y200589D01*
X214876D01*
X216208Y199256D01*
Y196591D01*
X214876Y195258D01*
X175199Y520432D02*
X167202D01*
Y524431D01*
X168535Y525763D01*
X171200D01*
X172533Y524431D01*
Y520432D01*
Y523098D02*
X175199Y525763D01*
Y533761D02*
Y528429D01*
X169867Y533761D01*
X168535D01*
X167202Y532428D01*
Y529762D01*
X168535Y528429D01*
X162180Y521765D02*
X154183D01*
Y525763D01*
X155516Y527096D01*
X158181D01*
X159515Y525763D01*
Y521765D01*
Y524431D02*
X162180Y527096D01*
Y529762D02*
Y532428D01*
Y531095D01*
X154183D01*
X155516Y529762D01*
X73799Y513569D02*
Y505572D01*
X79130D01*
X81796D02*
X84462D01*
X83129D01*
Y513569D01*
X81796Y512236D01*
X214148Y293324D02*
X212815Y294657D01*
X210149D01*
X208816Y293324D01*
Y287993D01*
X210149Y286660D01*
X212815D01*
X214148Y287993D01*
X216814Y293324D02*
X218146Y294657D01*
X220812D01*
X222145Y293324D01*
Y291991D01*
X220812Y290658D01*
X222145Y289326D01*
Y287993D01*
X220812Y286660D01*
X218146D01*
X216814Y287993D01*
Y289326D01*
X218146Y290658D01*
X216814Y291991D01*
Y293324D01*
X218146Y290658D02*
X220812D01*
X214148Y280484D02*
X212815Y281817D01*
X210149D01*
X208816Y280484D01*
Y275153D01*
X210149Y273820D01*
X212815D01*
X214148Y275153D01*
X216814Y281817D02*
X222145D01*
Y280484D01*
X216814Y275153D01*
Y273820D01*
X59664Y504239D02*
X58332Y502906D01*
Y500240D01*
X59664Y498907D01*
X64996D01*
X66329Y500240D01*
Y502906D01*
X64996Y504239D01*
X58332Y512236D02*
Y506904D01*
X62330D01*
X60997Y509570D01*
Y510903D01*
X62330Y512236D01*
X64996D01*
X66329Y510903D01*
Y508237D01*
X64996Y506904D01*
X108597Y528516D02*
X107264Y529849D01*
X104599D01*
X103266Y528516D01*
Y523185D01*
X104599Y521852D01*
X107264D01*
X108597Y523185D01*
X115262Y521852D02*
Y529849D01*
X111263Y525850D01*
X116595D01*
X69866Y314395D02*
X68533Y315728D01*
X65867D01*
X64534Y314395D01*
Y309063D01*
X65867Y307730D01*
X68533D01*
X69866Y309063D01*
X72532Y314395D02*
X73864Y315728D01*
X76530D01*
X77863Y314395D01*
Y313062D01*
X76530Y311729D01*
X75197D01*
X76530D01*
X77863Y310396D01*
Y309063D01*
X76530Y307730D01*
X73864D01*
X72532Y309063D01*
X69866Y334395D02*
X68533Y335728D01*
X65867D01*
X64534Y334395D01*
Y329063D01*
X65867Y327730D01*
X68533D01*
X69866Y329063D01*
X77863Y327730D02*
X72532D01*
X77863Y333062D01*
Y334395D01*
X76530Y335728D01*
X73864D01*
X72532Y334395D01*
X152766Y267556D02*
X151433Y268889D01*
X148768D01*
X147435Y267556D01*
Y262224D01*
X148768Y260891D01*
X151433D01*
X152766Y262224D01*
X155432Y260891D02*
X158098D01*
X156765D01*
Y268889D01*
X155432Y267556D01*
X182018Y253422D02*
Y245424D01*
X186016D01*
X187349Y246757D01*
Y248090D01*
X186016Y249423D01*
X182018D01*
X186016D01*
X187349Y250756D01*
Y252089D01*
X186016Y253422D01*
X182018D01*
X195347Y245424D02*
X190015D01*
X195347Y250756D01*
Y252089D01*
X194014Y253422D01*
X191348D01*
X190015Y252089D01*
D14*
X115271Y482380D02*
X114794Y484935D01*
X113426Y487144D01*
X111352Y488710D01*
X108853Y489421D01*
X106265Y489181D01*
X103939Y488023D01*
X102188Y486103D01*
X101250Y483680D01*
Y481081D01*
X102188Y478658D01*
X103939Y476738D01*
X106265Y475579D01*
X108853Y475339D01*
X111352Y476050D01*
X113426Y477617D01*
X114794Y479826D01*
X115271Y482380D01*
X119200Y488380D02*
X124200D01*
X92200D02*
X97200D01*
X103200Y468380D02*
Y472380D01*
X114200Y468380D02*
Y472380D01*
X119200Y476380D02*
X124200D01*
X97200Y472380D02*
Y476380D01*
Y472380D02*
X103200D01*
X114200D01*
X119200D01*
Y476380D01*
Y488380D01*
Y492380D01*
X97200D02*
X119200D01*
X97200Y488380D02*
Y492380D01*
Y476380D02*
Y488380D01*
X103200Y468380D02*
X114200D01*
X92200Y476380D02*
Y488380D01*
Y476380D02*
X97200D01*
X124200D02*
Y488380D01*
X86200Y355380D02*
Y505380D01*
X241200D01*
Y355380D02*
Y505380D01*
X86200Y355380D02*
X241200D01*
X82580Y149370D02*
X91330D01*
Y157370D01*
X82580Y209370D02*
X91330D01*
Y201370D02*
Y209370D01*
X62330Y196370D02*
X62330Y162370D01*
X82580Y225450D02*
X91330D01*
Y233450D01*
X82580Y285450D02*
X91330D01*
Y277450D02*
Y285450D01*
X62330Y272450D02*
X62330Y238450D01*
X202760Y332929D02*
X222760D01*
X202760Y310529D02*
X222760D01*
D15*
X20000Y530000D02*
X55000D01*
Y40000D02*
X255000D01*
X50000Y525000D02*
X55000D01*
X50000Y515000D02*
Y525000D01*
Y515000D02*
X55000D01*
X255000Y40000D02*
Y540000D01*
X0Y0D02*
Y540000D01*
X20000Y20000D02*
Y515000D01*
Y525000D02*
Y530000D01*
X50000Y515000D02*
Y525000D01*
X55000Y515000D02*
Y525000D01*
X0Y540000D02*
X255000D01*
X20000Y515000D02*
X50000D01*
X55000Y40000D02*
Y530000D01*
X20000Y525000D02*
X50000D01*
X255000Y0D02*
Y20000D01*
X20000D02*
X255000D01*
X0Y0D02*
X255000D01*
X20000Y75000D02*
Y515000D01*
X255000Y40000D02*
Y540000D01*
X20000Y75000D02*
X55000D01*
Y515000D01*
Y540000D02*
X255000D01*
X20000Y40000D02*
X55000D01*
X0Y0D02*
X235000D01*
X20000Y20000D02*
X235000D01*
X20000D02*
Y40000D01*
X235000Y20000D02*
Y40000D01*
Y0D02*
Y20000D01*
Y0D02*
Y20000D01*
Y0D02*
X255000D01*
X0Y540000D02*
X255000D01*
Y0D02*
Y540000D01*
X20000Y515000D02*
X55000D01*
Y40000D02*
Y540000D01*
X0Y0D02*
Y540000D01*
X55000Y40000D02*
X235000D01*
X55000D02*
Y75000D01*
Y40000D02*
Y75000D01*
Y40000D02*
X255000D01*
D16*
X118700Y224426D02*
X128200D01*
Y205426D02*
Y224426D01*
X118700Y205426D02*
Y224426D01*
Y205426D02*
X128200D01*
X162052Y260140D02*
Y269640D01*
X181052D01*
Y260140D02*
Y269640D01*
X162052Y260140D02*
X181052D01*
X207460Y224426D02*
X216960D01*
Y205426D02*
Y224426D01*
X207460Y205426D02*
Y224426D01*
Y205426D02*
X216960D01*
X85080Y306979D02*
Y316479D01*
X104080D01*
Y306979D02*
Y316479D01*
X85080Y306979D02*
X104080D01*
Y326979D02*
Y336479D01*
X85080Y326979D02*
X104080D01*
X85080D02*
Y336479D01*
X104080D01*
X124619Y517596D02*
X134119D01*
X124619D02*
Y536596D01*
X134119Y517596D02*
Y536596D01*
X124619D02*
X134119D01*
X139465Y517596D02*
X148965D01*
X139465D02*
Y536596D01*
X148965Y517596D02*
Y536596D01*
X139465D02*
X148965D01*
X212144Y152703D02*
X211478Y153370D01*
X210145D01*
X209478Y152703D01*
Y150037D01*
X210145Y149371D01*
X211478D01*
X212144Y150037D01*
X213477Y149371D02*
Y153370D01*
X216143Y149371D01*
Y153370D01*
X217476Y152703D02*
X218142Y153370D01*
X219475D01*
X220141Y152703D01*
Y152037D01*
X219475Y151370D01*
X220141Y150704D01*
Y150037D01*
X219475Y149371D01*
X218142D01*
X217476Y150037D01*
Y150704D01*
X218142Y151370D01*
X217476Y152037D01*
Y152703D01*
X218142Y151370D02*
X219475D01*
X212144Y126093D02*
X211478Y126759D01*
X210145D01*
X209478Y126093D01*
Y123427D01*
X210145Y122761D01*
X211478D01*
X212144Y123427D01*
X213477Y122761D02*
Y126759D01*
X216143Y122761D01*
Y126759D01*
X217476D02*
X220141D01*
Y126093D01*
X217476Y123427D01*
Y122761D01*
X212144Y139297D02*
X211478Y139964D01*
X210145D01*
X209478Y139297D01*
Y136631D01*
X210145Y135965D01*
X211478D01*
X212144Y136631D01*
X213477Y135965D02*
Y139964D01*
X216143Y135965D01*
Y139964D01*
X220141D02*
X218808Y139297D01*
X217476Y137964D01*
Y136631D01*
X218142Y135965D01*
X219475D01*
X220141Y136631D01*
Y137298D01*
X219475Y137964D01*
X217476D01*
X212144Y114338D02*
X211478Y115005D01*
X210145D01*
X209478Y114338D01*
Y111672D01*
X210145Y111006D01*
X211478D01*
X212144Y111672D01*
X213477Y111006D02*
Y115005D01*
X216143Y111006D01*
Y115005D01*
X220141D02*
X217476D01*
Y113005D01*
X218808Y113672D01*
X219475D01*
X220141Y113005D01*
Y111672D01*
X219475Y111006D01*
X218142D01*
X217476Y111672D01*
X167597Y55500D02*
X166931Y54834D01*
Y53501D01*
X167597Y52834D01*
X170263D01*
X170930Y53501D01*
Y54834D01*
X170263Y55500D01*
X170930Y56833D02*
X166931D01*
X170930Y59499D01*
X166931D01*
X170930Y62831D02*
X166931D01*
X168930Y60832D01*
Y63498D01*
X154416Y55500D02*
X153750Y54834D01*
Y53501D01*
X154416Y52834D01*
X157082D01*
X157748Y53501D01*
Y54834D01*
X157082Y55500D01*
X157748Y56833D02*
X153750D01*
X157748Y59499D01*
X153750D01*
X154416Y60832D02*
X153750Y61498D01*
Y62831D01*
X154416Y63498D01*
X155083D01*
X155749Y62831D01*
Y62165D01*
Y62831D01*
X156416Y63498D01*
X157082D01*
X157748Y62831D01*
Y61498D01*
X157082Y60832D01*
X125997Y55500D02*
X125331Y54834D01*
Y53501D01*
X125997Y52834D01*
X128663D01*
X129330Y53501D01*
Y54834D01*
X128663Y55500D01*
X129330Y56833D02*
X125331D01*
X129330Y59499D01*
X125331D01*
X129330Y63498D02*
Y60832D01*
X126664Y63498D01*
X125997D01*
X125331Y62831D01*
Y61498D01*
X125997Y60832D01*
X141944Y56167D02*
X141278Y55500D01*
Y54167D01*
X141944Y53501D01*
X144610D01*
X145277Y54167D01*
Y55500D01*
X144610Y56167D01*
X145277Y57500D02*
X141278D01*
X145277Y60165D01*
X141278D01*
X145277Y61498D02*
Y62831D01*
Y62165D01*
X141278D01*
X141944Y61498D01*
D17*
X110399Y306729D02*
X140399D01*
Y336729D01*
X110399D02*
X140399D01*
X110399Y306729D02*
Y336729D01*
D18*
X58361Y128985D02*
Y132984D01*
X60360D01*
X61027Y132318D01*
Y130985D01*
X60360Y130318D01*
X58361D01*
X59694D02*
X61027Y128985D01*
X62359Y132984D02*
Y128985D01*
Y130985D01*
X65025D01*
Y132984D01*
Y128985D01*
X69024Y132318D02*
X68357Y132984D01*
X67024D01*
X66358Y132318D01*
Y129652D01*
X67024Y128985D01*
X68357D01*
X69024Y129652D01*
X72356Y128985D02*
Y132984D01*
X70357Y130985D01*
X73023D01*
X77021Y128985D02*
X74356D01*
X77021Y131651D01*
Y132318D01*
X76355Y132984D01*
X75022D01*
X74356Y132318D01*
X104485Y128985D02*
Y132984D01*
X106484D01*
X107151Y132318D01*
Y130985D01*
X106484Y130318D01*
X104485D01*
X105818D02*
X107151Y128985D01*
X108484Y132984D02*
Y128985D01*
Y130985D01*
X111150D01*
Y132984D01*
Y128985D01*
X115148Y132318D02*
X114482Y132984D01*
X113149D01*
X112483Y132318D01*
Y129652D01*
X113149Y128985D01*
X114482D01*
X115148Y129652D01*
X118481Y128985D02*
Y132984D01*
X116481Y130985D01*
X119147D01*
X120480Y128985D02*
X121813D01*
X121146D01*
Y132984D01*
X120480Y132318D01*
X57712Y120603D02*
Y124602D01*
X59711D01*
X60377Y123936D01*
Y122603D01*
X59711Y121936D01*
X57712D01*
X59045D02*
X60377Y120603D01*
X61710Y124602D02*
Y120603D01*
Y122603D01*
X64376D01*
Y124602D01*
Y120603D01*
X68375Y123936D02*
X67709Y124602D01*
X66376D01*
X65709Y123936D01*
Y121270D01*
X66376Y120603D01*
X67709D01*
X68375Y121270D01*
X69708Y123936D02*
X70374Y124602D01*
X71707D01*
X72374Y123936D01*
Y123269D01*
X71707Y122603D01*
X71041D01*
X71707D01*
X72374Y121936D01*
Y121270D01*
X71707Y120603D01*
X70374D01*
X69708Y121270D01*
X76372Y120603D02*
X73706D01*
X76372Y123269D01*
Y123936D01*
X75706Y124602D01*
X74373D01*
X73706Y123936D01*
X104458Y120603D02*
Y124602D01*
X106458D01*
X107124Y123936D01*
Y122603D01*
X106458Y121936D01*
X104458D01*
X105791D02*
X107124Y120603D01*
X108457Y124602D02*
Y120603D01*
Y122603D01*
X111123D01*
Y124602D01*
Y120603D01*
X115121Y123936D02*
X114455Y124602D01*
X113122D01*
X112456Y123936D01*
Y121270D01*
X113122Y120603D01*
X114455D01*
X115121Y121270D01*
X116454Y123936D02*
X117121Y124602D01*
X118454D01*
X119120Y123936D01*
Y123269D01*
X118454Y122603D01*
X117787D01*
X118454D01*
X119120Y121936D01*
Y121270D01*
X118454Y120603D01*
X117121D01*
X116454Y121270D01*
X120453Y120603D02*
X121786D01*
X121119D01*
Y124602D01*
X120453Y123936D01*
X57712Y112348D02*
Y116347D01*
X59711D01*
X60377Y115681D01*
Y114348D01*
X59711Y113681D01*
X57712D01*
X59045D02*
X60377Y112348D01*
X61710Y116347D02*
Y112348D01*
Y114348D01*
X64376D01*
Y116347D01*
Y112348D01*
X68375Y115681D02*
X67709Y116347D01*
X66376D01*
X65709Y115681D01*
Y113015D01*
X66376Y112348D01*
X67709D01*
X68375Y113015D01*
X72374Y112348D02*
X69708D01*
X72374Y115014D01*
Y115681D01*
X71707Y116347D01*
X70374D01*
X69708Y115681D01*
X76372Y112348D02*
X73706D01*
X76372Y115014D01*
Y115681D01*
X75706Y116347D01*
X74373D01*
X73706Y115681D01*
X104458Y112348D02*
Y116347D01*
X106458D01*
X107124Y115681D01*
Y114348D01*
X106458Y113681D01*
X104458D01*
X105791D02*
X107124Y112348D01*
X108457Y116347D02*
Y112348D01*
Y114348D01*
X111123D01*
Y116347D01*
Y112348D01*
X115121Y115681D02*
X114455Y116347D01*
X113122D01*
X112456Y115681D01*
Y113015D01*
X113122Y112348D01*
X114455D01*
X115121Y113015D01*
X119120Y112348D02*
X116454D01*
X119120Y115014D01*
Y115681D01*
X118454Y116347D01*
X117121D01*
X116454Y115681D01*
X120453Y112348D02*
X121786D01*
X121119D01*
Y116347D01*
X120453Y115681D01*
X58694Y103883D02*
Y107882D01*
X60693D01*
X61360Y107216D01*
Y105883D01*
X60693Y105216D01*
X58694D01*
X60027D02*
X61360Y103883D01*
X62693Y107882D02*
Y103883D01*
Y105883D01*
X65358D01*
Y107882D01*
Y103883D01*
X69357Y107216D02*
X68691Y107882D01*
X67358D01*
X66691Y107216D01*
Y104550D01*
X67358Y103883D01*
X68691D01*
X69357Y104550D01*
X70690Y103883D02*
X72023D01*
X71356D01*
Y107882D01*
X70690Y107216D01*
X76688Y103883D02*
X74022D01*
X76688Y106549D01*
Y107216D01*
X76022Y107882D01*
X74689D01*
X74022Y107216D01*
X104791Y103883D02*
Y107882D01*
X106791D01*
X107457Y107216D01*
Y105883D01*
X106791Y105216D01*
X104791D01*
X106124D02*
X107457Y103883D01*
X108790Y107882D02*
Y103883D01*
Y105883D01*
X111456D01*
Y107882D01*
Y103883D01*
X115455Y107216D02*
X114788Y107882D01*
X113455D01*
X112789Y107216D01*
Y104550D01*
X113455Y103883D01*
X114788D01*
X115455Y104550D01*
X116788Y103883D02*
X118120D01*
X117454D01*
Y107882D01*
X116788Y107216D01*
X120120Y103883D02*
X121453D01*
X120786D01*
Y107882D01*
X120120Y107216D01*
X58361Y95562D02*
Y99561D01*
X60360D01*
X61027Y98894D01*
Y97561D01*
X60360Y96895D01*
X58361D01*
X59694D02*
X61027Y95562D01*
X62359Y99561D02*
Y95562D01*
Y97561D01*
X65025D01*
Y99561D01*
Y95562D01*
X69024Y98894D02*
X68357Y99561D01*
X67024D01*
X66358Y98894D01*
Y96228D01*
X67024Y95562D01*
X68357D01*
X69024Y96228D01*
X70357Y98894D02*
X71023Y99561D01*
X72356D01*
X73023Y98894D01*
Y96228D01*
X72356Y95562D01*
X71023D01*
X70357Y96228D01*
Y98894D01*
X77021Y95562D02*
X74356D01*
X77021Y98228D01*
Y98894D01*
X76355Y99561D01*
X75022D01*
X74356Y98894D01*
X104458Y95562D02*
Y99561D01*
X106458D01*
X107124Y98894D01*
Y97561D01*
X106458Y96895D01*
X104458D01*
X105791D02*
X107124Y95562D01*
X108457Y99561D02*
Y95562D01*
Y97561D01*
X111123D01*
Y99561D01*
Y95562D01*
X115121Y98894D02*
X114455Y99561D01*
X113122D01*
X112456Y98894D01*
Y96228D01*
X113122Y95562D01*
X114455D01*
X115121Y96228D01*
X116454Y98894D02*
X117121Y99561D01*
X118454D01*
X119120Y98894D01*
Y96228D01*
X118454Y95562D01*
X117121D01*
X116454Y96228D01*
Y98894D01*
X120453Y95562D02*
X121786D01*
X121119D01*
Y99561D01*
X120453Y98894D01*
X129683Y347729D02*
Y343564D01*
X130516Y342731D01*
X132182D01*
X133015Y343564D01*
Y347729D01*
X134681Y346896D02*
X135514Y347729D01*
X137180D01*
X138013Y346896D01*
Y346063D01*
X137180Y345230D01*
X136347D01*
X137180D01*
X138013Y344397D01*
Y343564D01*
X137180Y342731D01*
X135514D01*
X134681Y343564D01*
M02*
