G04*
G04 #@! TF.GenerationSoftware,Altium Limited,Altium Designer,25.8.1 (18)*
G04*
G04 Layer_Color=8421504*
%FSLAX44Y44*%
%MOMM*%
G71*
G04*
G04 #@! TF.SameCoordinates,7E297B50-0598-46DA-9FDC-CB526C42688E*
G04*
G04*
G04 #@! TF.FilePolarity,Positive*
G04*
G01*
G75*
%ADD19R,2.0000X1.5000*%
%ADD20R,0.3556X0.5080*%
%ADD21R,0.7000X1.8000*%
%ADD22R,1.8000X1.2000*%
%ADD23R,1.5500X0.6000*%
%ADD24R,0.6000X0.6400*%
%ADD25R,0.6400X0.6000*%
%ADD26R,0.6500X0.6500*%
%ADD27R,0.2500X0.3500*%
%ADD28R,0.6500X0.6500*%
%ADD29R,0.7000X1.6000*%
G04:AMPARAMS|DCode=30|XSize=0.75mm|YSize=0.35mm|CornerRadius=0.0438mm|HoleSize=0mm|Usage=FLASHONLY|Rotation=180.000|XOffset=0mm|YOffset=0mm|HoleType=Round|Shape=RoundedRectangle|*
%AMROUNDEDRECTD30*
21,1,0.7500,0.2625,0,0,180.0*
21,1,0.6625,0.3500,0,0,180.0*
1,1,0.0875,-0.3313,0.1313*
1,1,0.0875,0.3313,0.1313*
1,1,0.0875,0.3313,-0.1313*
1,1,0.0875,-0.3313,-0.1313*
%
%ADD30ROUNDEDRECTD30*%
%ADD31R,1.8000X0.7000*%
%ADD32R,1.1051X1.0062*%
%ADD33R,0.7600X0.7200*%
%ADD34R,0.5000X0.4500*%
%ADD35R,0.8500X0.2000*%
%ADD36R,0.2000X0.8500*%
%ADD37R,2.7000X2.7000*%
%ADD38R,0.7200X0.7600*%
%ADD39R,1.0062X1.1051*%
%ADD40R,0.5725X0.6146*%
%ADD41R,0.4000X0.5000*%
%ADD42R,0.3500X0.2500*%
D19*
X147220Y235928D02*
D03*
Y193925D02*
D03*
X188682D02*
D03*
Y235928D02*
D03*
D20*
X171200Y282067D02*
D03*
Y297561D02*
D03*
X164700D02*
D03*
X177700D02*
D03*
X164700Y282067D02*
D03*
X177700D02*
D03*
D21*
X171200Y504830D02*
D03*
X121200D02*
D03*
X111200Y356830D02*
D03*
X121200D02*
D03*
X211200D02*
D03*
X201200D02*
D03*
X191200D02*
D03*
X181200D02*
D03*
X131200D02*
D03*
X151200Y504830D02*
D03*
X161200D02*
D03*
X181200D02*
D03*
X191200D02*
D03*
X201200D02*
D03*
X131200D02*
D03*
X111200D02*
D03*
X221200Y356830D02*
D03*
X141200Y504830D02*
D03*
X211200D02*
D03*
X221200D02*
D03*
D22*
X69330Y207370D02*
D03*
Y151370D02*
D03*
Y283450D02*
D03*
Y227450D02*
D03*
D23*
X94580Y174370D02*
D03*
Y250450D02*
D03*
Y164370D02*
D03*
Y240450D02*
D03*
Y260450D02*
D03*
Y270450D02*
D03*
Y184370D02*
D03*
Y194370D02*
D03*
D24*
X175952Y264890D02*
D03*
X90180Y311729D02*
D03*
X90180Y331729D02*
D03*
X167152Y264890D02*
D03*
X98980Y311729D02*
D03*
X98980Y331729D02*
D03*
D25*
X212210Y210526D02*
D03*
X123450D02*
D03*
X129369Y531496D02*
D03*
X144215D02*
D03*
Y522696D02*
D03*
X123450Y219326D02*
D03*
X129369Y522696D02*
D03*
X212210Y219326D02*
D03*
D26*
X230883Y277774D02*
D03*
Y290658D02*
D03*
X166975Y314429D02*
D03*
X243190Y241910D02*
D03*
Y230955D02*
D03*
X233190D02*
D03*
Y219955D02*
D03*
X243190D02*
D03*
X233190Y241910D02*
D03*
X240883Y277774D02*
D03*
Y290658D02*
D03*
X166705Y327429D02*
D03*
X74017Y521350D02*
D03*
X84017D02*
D03*
X156705Y327429D02*
D03*
X156975Y314429D02*
D03*
D27*
X135399Y309479D02*
D03*
X120399Y333979D02*
D03*
X115399D02*
D03*
Y309479D02*
D03*
X130399D02*
D03*
X125399Y333979D02*
D03*
X135399D02*
D03*
X125399Y309479D02*
D03*
X120399D02*
D03*
X130399Y333979D02*
D03*
D28*
X62330Y531350D02*
D03*
X94580D02*
D03*
X62330Y521350D02*
D03*
X94580D02*
D03*
D29*
X212760Y321729D02*
D03*
D30*
X203060Y316729D02*
D03*
X222460D02*
D03*
Y326729D02*
D03*
X203060D02*
D03*
D31*
X237850Y425280D02*
D03*
Y465280D02*
D03*
Y455280D02*
D03*
Y435280D02*
D03*
Y405280D02*
D03*
Y395280D02*
D03*
X89850D02*
D03*
Y405280D02*
D03*
Y415280D02*
D03*
Y425280D02*
D03*
X237850Y415280D02*
D03*
Y445280D02*
D03*
D32*
X172468Y169858D02*
D03*
X125324Y169964D02*
D03*
X139336D02*
D03*
X158457Y169858D02*
D03*
D33*
X202564Y150944D02*
D03*
Y124985D02*
D03*
X192764D02*
D03*
Y137964D02*
D03*
X202564D02*
D03*
X192764Y150944D02*
D03*
D34*
X83430Y130985D02*
D03*
X83432Y122603D02*
D03*
Y114348D02*
D03*
Y105883D02*
D03*
X83184Y97561D02*
D03*
X98184D02*
D03*
X90684D02*
D03*
D03*
X98432Y105883D02*
D03*
X90932D02*
D03*
D03*
X98432Y114348D02*
D03*
X90932D02*
D03*
D03*
X98432Y122603D02*
D03*
X90932D02*
D03*
D03*
X98430Y130985D02*
D03*
X90930D02*
D03*
D03*
D35*
X170777Y129005D02*
D03*
X131777Y117005D02*
D03*
Y121005D02*
D03*
Y125005D02*
D03*
Y129005D02*
D03*
Y133005D02*
D03*
Y137005D02*
D03*
Y141005D02*
D03*
X170777D02*
D03*
Y137005D02*
D03*
Y133005D02*
D03*
Y125005D02*
D03*
Y121005D02*
D03*
Y117005D02*
D03*
D36*
X155277Y148505D02*
D03*
X163277Y109505D02*
D03*
X159277D02*
D03*
X155277D02*
D03*
X151277D02*
D03*
X147277D02*
D03*
X143277D02*
D03*
X139277D02*
D03*
Y148505D02*
D03*
X143277D02*
D03*
X147277D02*
D03*
X151277D02*
D03*
X159277D02*
D03*
X163277D02*
D03*
D37*
X151277Y129005D02*
D03*
D38*
X143030Y76351D02*
D03*
Y86151D02*
D03*
D39*
X127330Y73973D02*
D03*
Y87984D02*
D03*
D40*
X155749Y76391D02*
D03*
Y84969D02*
D03*
X168430Y76391D02*
D03*
Y84969D02*
D03*
D41*
X193664Y113005D02*
D03*
X201664D02*
D03*
D42*
X137649Y326729D02*
D03*
X113149Y326729D02*
D03*
X137649Y321729D02*
D03*
Y316729D02*
D03*
X113149Y321729D02*
D03*
Y316729D02*
D03*
M02*
