G04*
G04 #@! TF.GenerationSoftware,Altium Limited,Altium Designer,25.8.1 (18)*
G04*
G04 Layer_Color=32896*
%FSLAX44Y44*%
%MOMM*%
G71*
G04*
G04 #@! TF.SameCoordinates,7E297B50-0598-46DA-9FDC-CB526C42688E*
G04*
G04*
G04 #@! TF.FilePolarity,Positive*
G04*
G01*
G75*
%ADD13C,0.2000*%
%ADD16C,0.1000*%
%ADD73C,0.0500*%
D13*
X233662Y138154D02*
X232330Y136821D01*
X229664D01*
X228331Y138154D01*
Y139487D01*
X229664Y140820D01*
X232330D01*
X233662Y142153D01*
Y143486D01*
X232330Y144819D01*
X229664D01*
X228331Y143486D01*
X236328Y144819D02*
Y136821D01*
X240327D01*
X241660Y138154D01*
Y140820D01*
X240327Y142153D01*
X236328D01*
X249657Y138154D02*
X248324Y136821D01*
X245659D01*
X244326Y138154D01*
Y143486D01*
X245659Y144819D01*
X248324D01*
X249657Y143486D01*
D16*
X192914Y87356D02*
X196913D01*
Y89355D01*
X196246Y90021D01*
X194914D01*
X194247Y89355D01*
Y87356D01*
Y88688D02*
X192914Y90021D01*
X196913Y91354D02*
X192914D01*
Y93354D01*
X193581Y94020D01*
X194247D01*
X194914Y93354D01*
Y91354D01*
Y93354D01*
X195580Y94020D01*
X196246D01*
X196913Y93354D01*
Y91354D01*
Y98019D02*
Y95353D01*
X194914D01*
Y96686D01*
Y95353D01*
X192914D01*
X196246Y99352D02*
X196913Y100018D01*
Y101351D01*
X196246Y102018D01*
X195580D01*
X194914Y101351D01*
Y100685D01*
Y101351D01*
X194247Y102018D01*
X193581D01*
X192914Y101351D01*
Y100018D01*
X193581Y99352D01*
X199664Y93298D02*
X203663D01*
Y95298D01*
X202997Y95964D01*
X201664D01*
X200997Y95298D01*
Y93298D01*
Y94631D02*
X199664Y95964D01*
X203663Y97297D02*
X199664D01*
Y99297D01*
X200331Y99963D01*
X200997D01*
X201664Y99297D01*
Y97297D01*
Y99297D01*
X202330Y99963D01*
X202997D01*
X203663Y99297D01*
Y97297D01*
Y103962D02*
Y101296D01*
X201664D01*
Y102629D01*
Y101296D01*
X199664D01*
Y107960D02*
Y105295D01*
X202330Y107960D01*
X202997D01*
X203663Y107294D01*
Y105961D01*
X202997Y105295D01*
X206664Y93205D02*
X210663D01*
Y95205D01*
X209996Y95871D01*
X208664D01*
X207997Y95205D01*
Y93205D01*
Y94538D02*
X206664Y95871D01*
X210663Y97204D02*
X206664D01*
Y99204D01*
X207331Y99870D01*
X207997D01*
X208664Y99204D01*
Y97204D01*
Y99204D01*
X209330Y99870D01*
X209996D01*
X210663Y99204D01*
Y97204D01*
Y103869D02*
Y101203D01*
X208664D01*
Y102536D01*
Y101203D01*
X206664D01*
Y105202D02*
Y106534D01*
Y105868D01*
X210663D01*
X209996Y105202D01*
D73*
X192374Y75600D02*
Y85760D01*
Y75600D02*
X197454D01*
Y85760D01*
X192374D02*
X197454D01*
X204204Y81421D02*
Y91581D01*
X199124D02*
X204204D01*
X199124Y81421D02*
Y91581D01*
Y81421D02*
X204204D01*
X211204D02*
Y91581D01*
X206124D02*
X211204D01*
X206124Y81421D02*
Y91581D01*
Y81421D02*
X211204D01*
M02*
