M48
;Layer_Color=9474304
;FILE_FORMAT=4:3
METRIC
;TYPE=PLATED
T01F00S00C0.300
T02F00S00C1.020
%
T01
X0006051Y0005208
X0007051
X0008051
X0009051
X0010051
X0011051
X0012051
Y0006208
X0011051
Y0007208
Y0008208
X0010051
Y0007208
Y0006208
X0009051
Y0007208
Y0008208
X0008051
Y0007208
Y0006208
X0007051
Y0007208
Y0008208
Y0009208
Y0010208
Y0011208
Y0012208
Y0013208
X0006051
Y0012208
Y0011208
Y0010208
Y0009208
Y0008208
Y0007208
Y0006208
X0009068Y0009756
X0009093Y0010588
Y0011435
Y0012260
X0009093Y0013098
X0009051Y0014208
X0008051
X0010077Y0014243
X0011051Y0015208
X0012051
X0011845Y0013702
X0011315Y0013098
X0011040Y0012276
X0010899Y0011435
X0010953Y0010588
X0010905Y0009756
X0014303Y0009950
X0015095Y0009404
X0015620Y0008954
X0016255Y0009319
X0019051Y0009208
X0019911Y0009601
X0020166Y0011301
X0022051Y0011208
Y0012208
X0023051
X0024051
Y0013208
Y0014208
X0023051
Y0013208
X0022051
Y0014208
Y0015208
X0021051
Y0014208
Y0013208
X0020291Y0013796
X0018438Y0013327
X0018666Y0012498
X0018391Y0011931
X0018051Y0008208
Y0007208
X0016843Y0006850
X0015528Y0006843
X0015051Y0006208
Y0005208
X0016051
X0017051
X0018051
X0019051
X0020051
X0021051
X0022051
X0023051
X0024051
Y0006208
X0023051
X0022051
Y0007208
X0021051
Y0006208
X0020051
Y0007208
X0019051Y0006208
X0014051
Y0005208
X0013051
Y0006208
X0015128Y0012901
X0017051Y0015208
X0013051
X0022051Y0010208
Y0009208
X0021051Y0017208
Y0018208
Y0019208
Y0020208
X0022051
Y0021208
X0023051
X0024051Y0020208
X0022051Y0022208
Y0023208
Y0024208
X0021051
Y0023208
X0018868Y0023593
X0019051Y0022208
Y0021208
X0020051
X0018051
Y0022208
X0017051
Y0023208
Y0024208
X0014722Y0023593
X0015051Y0022208
X0016051
Y0021208
X0017051
Y0020208
Y0018208
X0018051
X0019051
X0020051
Y0017208
X0019051
X0013934Y0016243
X0013051Y0019208
Y0020208
X0014051Y0021208
X0015051
X0013385Y0025788
X0013051Y0027208
X0014051
Y0028208
Y0029208
X0014702Y0029117
X0015248Y0030282
X0014681Y0031096
X0014670Y0032948
X0015269Y0034054
X0016670Y0034802
X0017051Y0036208
X0019141Y0037051
X0020051Y0037208
Y0038208
Y0039208
X0022051
Y0040208
Y0042208
Y0043208
X0020051Y0042208
X0019051Y0041208
Y0038208
X0022051
X0023051
X0024051
Y0037208
Y0036208
Y0035208
X0023051
Y0036208
Y0037208
X0022051
X0023051Y0033208
Y0030208
X0022051
Y0029208
Y0028208
Y0027208
X0024149Y0027139
X0024051Y0025208
X0023281Y0024790
X0020051Y0028208
Y0029208
Y0030208
X0017768Y0029442
X0017097Y0029364
X0017260Y0032743
X0019661Y0034208
X0019051Y0027208
X0013051Y0028208
Y0029208
Y0032208
X0014051Y0036208
X0013437Y0037293
X0013858Y0038630
X0013051Y0039208
Y0040208
X0014051
Y0041208
Y0042208
Y0043208
Y0044208
Y0045208
Y0046208
X0013051
Y0047208
X0013120Y0048455
X0014120Y0048455
X0017051Y0048208
Y0047208
Y0046208
Y0045208
Y0044208
Y0043208
X0019051Y0045208
Y0046208
X0020051
Y0047208
Y0048208
X0019051
Y0047208
X0020110Y0049238
X0023051Y0049208
X0024051
Y0050208
Y0051208
Y0052208
Y0053208
X0023051
Y0052208
Y0051208
Y0050208
Y0048208
X0024051
X0022051Y0052208
Y0053208
X0021051
Y0052208
X0020051
Y0053208
X0019051
Y0052208
X0018051
Y0053208
X0017051
Y0052208
X0016051
Y0053208
X0013679Y0053150
X0017097Y0049238
X0013051Y0045208
Y0044208
Y0043208
Y0042208
Y0041208
X0017051Y0039208
X0012051
Y0040208
Y0041208
Y0042208
Y0043208
Y0044208
Y0045208
Y0046208
Y0047208
Y0048208
Y0049208
X0011051Y0048208
Y0047208
Y0046208
Y0045208
Y0044208
Y0043208
Y0042208
Y0041208
Y0040208
Y0039208
Y0038208
X0012051
X0011051Y0037208
X0010051
Y0038208
X0009051
Y0037208
Y0036208
X0010051
Y0035208
Y0034208
X0011051
X0009051
Y0035208
X0008051
Y0036208
Y0037208
Y0038208
X0007051
Y0039208
Y0040208
Y0041208
Y0042208
Y0043208
Y0044208
X0008051
X0009051
X0010051
Y0045208
Y0046208
Y0047208
Y0048208
Y0049208
Y0050208
Y0051208
X0009051
Y0050208
Y0049208
Y0048208
Y0047208
Y0046208
Y0045208
X0008051
Y0046208
Y0047208
Y0048208
Y0049208
Y0050208
Y0051208
X0007051
Y0050208
Y0049208
Y0048208
Y0047208
Y0046208
Y0045208
X0006051
Y0046208
Y0047208
Y0048208
Y0049208
Y0050208
X0007051Y0053208
X0008051
X0011051
X0012051
Y0052208
X0006051Y0044208
Y0043208
Y0042208
Y0041208
Y0040208
Y0039208
Y0038208
Y0037208
X0007051
Y0036208
Y0035208
Y0034208
X0008051
Y0033208
Y0032208
X0009051
Y0030208
X0009908Y0030282
X0011051Y0030208
Y0029208
X0011665Y0028734
X0012437
X0012051Y0026208
X0011051Y0025208
X0010051Y0023208
Y0022208
X0009051
Y0023208
Y0021208
X0009458Y0019437
X0009973Y0018437
X0008051Y0018208
Y0019208
X0007051
Y0018208
Y0017208
X0008051
Y0016208
X0007051
X0006051
Y0017208
Y0018208
Y0019208
Y0024208
X0007051
X0008051
Y0025208
Y0026208
Y0027208
X0007051
Y0026208
Y0025208
X0006051
Y0026208
Y0027208
Y0030208
X0007051
X0008051
Y0031208
X0007051
Y0032208
Y0033208
X0006051
Y0034208
Y0035208
Y0036208
Y0032208
Y0031208
X0009051Y0029208
Y0028208
X0010051
X0012051Y0020208
Y0019208
X0011051Y0016208
T02
X0023910Y0008363
Y0010903
X0023899Y0016237
Y0018777
M30
